<?xml version="1.0" encoding="UTF-8"?><svg id="a" xmlns="http://www.w3.org/2000/svg" viewBox="0 0 486.04 212.23"><defs><style>.b{fill:#32214d;}.c{fill:#ec7829;}.d{fill:#d16219;}.e{stroke:#43286a;stroke-miterlimit:10;stroke-width:3px;}.e,.f{fill:#43286a;}</style></defs><g><path class="c" d="M398.17,194.58c-1.14-.17-1.53-.79-1.29-1.91h4.58c.9,2.91,1.84,5.94,2.88,9.26,1.03-3.22,1.99-6.22,2.96-9.27h4.34v1.65l-.87,.36v9.8l.86,.18,.07,1.3h-4.71v-1.26l.77-.2v-6.55c-.91,2.15-1.23,4.49-2.38,6.57h-2.23l-2.21-7.15-.18,.02v7.15l1.28,.08,.06,1.34h-5.2v-1.27l1.26-.2v-9.91Z"/><path class="c" d="M425.66,205.93v-1.19l.87-.33v-8.38l-.86-.18-.06-1.3h4.63s.14,.1,.15,.15c.02,.31,0,.63,0,1.11l-1.33,.2v8.46c.96,.24,2.04,.02,3.2,.13v-2.35l2.03-.09v2.36l.73,.07c.99-2.81,1.99-5.64,3.01-8.52l-.79-.22-.13-1.27h5.72c-.14,.87-.45,1.7-.36,2.47,.09,.77,.63,1.48,.9,2.25,.27,.77,.44,1.57,.69,2.35,.29,.92,.62,1.82,.97,2.85h1.15l.11,1.45h-4.76l-.06-1.2,1.13-.4-.62-1.64h-3.69l-.74,1.63,1,.41v1.19h-12.87Zm14.55-8.64l-.49,.08c-.24,1.06-.47,2.12-.73,3.28h2.37c-.4-1.16-.77-2.26-1.15-3.36Z"/><path class="c" d="M377.13,195.84v10.09h-3.25c-1.76-2.55-2.74-5.61-4.25-8.79-.3,1.38-.14,2.51-.17,3.61-.03,1.2,0,2.39,0,3.68l1.37,.24v1.23h-5.16v-1.25h1.03c.16-.14,.27-.19,.27-.25,0-2.77,0-5.55,0-8.4h-1.27l-.1-1.45h4.83c1.29,2.76,2.63,5.64,4.15,8.89,.27-1.47,.12-2.6,.15-3.72,.03-1.19,0-2.39,0-3.68l-1.38-.23v-1.24h5.17v1.26h-1.4Z"/><path class="c" d="M241.87,197.07v7.42l1.26,.14v1.22s-.02,.07-.08,.07c-1.49,0-2.99,0-4.56,0v-1.22l.82-.29v-8.37l-.79-.23-.14-1.26h4.34l4.24,8.32v-6.84l-1.27-.23v-1.23h5.13v1.22l-1.34,.21v9.87h-3.2l-4.42-8.84Z"/><path class="c" d="M225.88,203.59v-9.01l-.8-.17v-1.8h4.6v1.79l-1.26,.14v8.91l.63,.57h3.41c.22-.22,.54-.39,.54-.56,.03-2.93,.02-5.86,.02-8.89h-1.21l-.15-1.93h4.74l.1,1.85-.94,.15s.03,6.28,.03,9.4c-.74,.64-.86,1.06-1.81,1.87-1.64,0-4.32,.02-6.29,.02l-1.61-2.36Z"/><path class="c" d="M288.55,202.23h-1.6v2.19l.86,.32v1.19h-4.69l-.08-1.25,.87-.18v-8.44l-.77-.21v-1.2s.01-.06,.06-.06c2.55,0,5.09,0,7.79,0l1.62,1.87v3.6l-1.43,1.2c.07,1.84,.89,2.91,2.37,3.52v1.19h-3.68v-1.81l-1.32-1.9Zm-1.62-2.06h2.68l.61-.61v-2.38l-.58-.69h-2.71v3.68Z"/><path class="c" d="M343.11,206h-5.12l-1.66-1.77v-2.42h2.33v1.48l.78,.78h2.94l.63-.77v-2.49c-1.4-1.17-3.08-.19-4.65-.71l-1.98-1.98v-3.21l2.34-2.33h4.61l1.58,1.76v2.48h-1.76v-1.07l-1.38-1.28c-.91,.23-2.12-.52-2.98,.7v2l1.11,1.11h3.1l2.44,2.45v3.14l-2.32,2.13Z"/><path class="c" d="M346.02,204.72l.74-.28c.92-2.5,1.9-5.19,2.95-8.04-.13-.42-.32-1.05-.56-1.82h5.51l-.49,1.93c.72,2.1,1.52,4.41,2.31,6.72,.32,.96,.31,.96,1.38,1.52v1.2h-4.64v-1.26l1.33-.23-.98-1.73h-3.63l-.55,1.76,1.24,.13v1.23c.05-.06,0,.05-.05,.05-1.49,0-2.99,0-4.57,0v-1.19Zm5.89-8.26l-1.21,4.17h2.29l-1.08-4.17Z"/><path class="c" d="M413.46,204.52c.96-2.63,1.95-5.33,2.96-8.1l-.52-1.87h5.21c.55,.72-.05,1.27-.29,1.82,.81,2.27,1.76,4.46,2.31,6.75,.25,1.03,.8,1.35,1.5,1.72v1.07h-4.73v-1.24l1.36-.2-1.01-1.76h-3.58l-.53,1.76,1.25,.21v1.24h-4.69v-1.24l.76-.15Zm6.25-3.87l-1.11-4.17c-.47,1.67-.81,2.87-1.17,4.17h2.28Z"/><path class="c" d="M474.13,205.92v-1.09c.84-.3,1.14-1.06,1.42-1.91,.71-2.18,1.51-4.32,2.32-6.6l-.52-1.44c.15-.18,.2-.29,.25-.29,1.65,0,3.31,0,5.16,0-.1,.57-.2,1.12-.36,2.07,.65,1.95,1.54,4.31,2.2,6.73,.24,.87,.74,1.06,1.43,1.34v1.2h-4.7v-1.27h1.45l-1.06-1.95h-3.63l-.5,1.79,1.25,.19v1.25h-4.72Zm7.06-5.26c-.36-1.33-.69-2.54-1.12-4.11l-1.22,4.11h2.34Z"/><path class="c" d="M271.58,205.92v-1.31l1.28-.08v-8.53l-1.24-.14v-1.29c3.05-.2,6.2-.03,9.43-.1v3.22l-.57,.57h-1.74v-2.24h-3.25v3.22h4.09v1.95h-4.12v3.29c.96,.23,2.04,.02,3.2,.13v-2.23c.93-.32,1.73-.39,2.42,.49v3.07h-9.5Z"/><path class="c" d="M386.87,199.2l1.78,1.76v3.37l-1.6,1.6h-5.43l-1.53-1.53v-2.6h2.22c.32,.68-.27,1.65,.86,2.21h2.96v-2.2l-.57-.57h-3.36l-2.15-2.15v-2.91l1.88-1.65h4.98l1.69,1.85v2.37h-2.2c-.53-.62,.45-1.85-.79-2.29h-2.51c-1.07,.89-.74,1.77-.28,2.75h4.05Z"/><path class="c" d="M302.02,194.49l2.09,2.11v2.1h-2.23c-.31-.7,.27-1.66-.86-2.22h-2.96v2.19q.86,.57,4.02,.66l2.07,2.07v2.91l-1.88,1.65h-5.4l-1.75-2.21v-2h2.23c.39,.64-.34,1.78,1.03,2.29h2.68c.98-.54,.73-1.37,.7-2.15l-.68-.68h-3.85l-1.67-1.74v-3.31l1.71-1.67h4.77Z"/><path class="c" d="M464.61,206h-5.46l-1.85-2.26v-1.96l2.32-.11v1.62l.78,.78h2.86c1.02-1.22,1.03-1.35,.12-2.81h-3.87l-1.67-1.67v-3.48l1.56-1.56h4.92c.67,.67,1.34,1.34,2.06,2.06v2.12h-2.15l-.58-2.27h-3.37v2.2l.6,.6h3.27c.74,.77,1.45,1.52,2.27,2.38v2.72l-1.79,1.65Z"/><path class="c" d="M266.28,205.96h-3.2c-.64-1.79-1.28-3.52-1.89-5.26-.51-1.46-.88-2.98-1.67-4.33-.16-.27-.53-.41-.89-.67v-1.12h4.22v1.25l-.8,.16,2.56,7.82c.9-2.62,1.74-5.06,2.63-7.65l-.92-.41-.09-1.19h4.76l.07,1.29-1.23,.12-3.56,10Z"/><path class="c" d="M321.85,198.28h-1.78v-2.29l-1.44-.07v8.55l1.33,.21v1.25h-5.66v-1.27h1.28v-8.64h-1.27v2.26h-1.8c-.2-.2-.43-.43-.66-.66,0-.96,0-1.92,0-3.04,3.3-.2,6.61-.03,10-.1v3.81Z"/><path class="c" d="M451.26,200.43c.63-1.53,1.18-2.88,1.76-4.3l-.93-.31v-1.22h4.65v1.27l-1.07,.07c-.09,.09-.25,.17-.29,.3-1,2.69-2.92,5.06-2.92,8.21l1.42,.22v1.24h-5.18v-1.26h1.09c.14-.21,.27-.33,.29-.46,.25-2-1.04-3.55-1.63-5.3-.35-1.04-.98-1.98-1.49-2.96h-1.11l-.1-1.37h4.76l.06,1.2-1.07,.37c.57,1.41,1.13,2.77,1.75,4.3Z"/><path class="c" d="M305.67,205.92v-1.31l1.28-.08v-8.52l-1.24-.15v-1.22s.01-.06,.06-.06c1.82,0,3.63,0,5.53,0v1.24l-1.3,.23v8.43l1.33,.2v1.25h-5.66Z"/><path class="c" d="M324.25,196l-1.28-.15v-1.25h5.63v1.24h-1.29c-.21,2.91-.03,5.75-.12,8.66h1.39l.09,1.45h-5.68v-1.27l1.26-.19v-8.49Z"/><path class="c" d="M473.57,194.57v1.31l-1.28,.08v8.53l1.24,.15v1.22s-.01,.06-.06,.06c-1.82,0-3.63,0-5.53,0v-1.24l1.3-.23v-8.43l-1.33-.2v-1.25h5.66Z"/><path class="c" d="M257.62,204.72v1.29c-1.71,0-3.42,0-5.21,0v-1.33l1.31-.21v-8.44h-1.28l-.13-1.45h5.24l.08,1.29-1.36,.12v8.49l1.34,.25Z"/><path class="c" d="M358.42,205.77v-1.05l1.37-.26v-8.42l-1.31-.21v-1.24h5.18v1.28h-1.28v8.65l1.23,.11v1.24c-.22,.28-2.86,.3-5.18-.09Z"/></g><g><path class="f" d="M313.34,81.42c-1.28,3.47-2.51,6.95-3.89,10.32h-4.65c-2.64-6.96-8.16-21-8.16-21h0l-.07,20h3.22v4.76h-11.88v-4.61h3.19l.04-22.57h-3.16v-4.81h10.38c2.93,7.43,5.9,14.96,8.89,22.53,2.93-7.56,5.81-15,8.74-22.55h10.18v4.73h-3.18v22.58h3.2v4.68h-11.86v-4.65h3.24v-19.76"/><path class="f" d="M334.9,153.09v-4.6h3.29v-22.57h-3.22v-4.76h10.79c4.26,8.51,8.58,17.16,13.04,26.09v-21.36h-3.16v-4.79h11.82v4.68h-3.2v27.32h-7.27c-1.09-2.09-2.27-4.25-3.35-6.44-1.8-3.65-3.4-7.4-5.36-10.96-1.53-2.78-3.01-5.57-4.63-8.61v21.3h3.17v4.71h-11.91Z"/><path class="f" d="M294.18,33.22h3.2v4.68h-11.87v-4.67h3.25V10.74h-3.23l-.08-2.38v-2.44h11.88v4.68h-3.15v9.11h13.73V10.74h-3.19V5.96h11.85v4.65h-3.24v22.58h3.26v4.74h-11.88c-.02-.67-.06-1.44-.07-2.22-.01-.79,0-1.57,0-2.44h3.25v-9.12c-4.39,0-13.73,0-13.73,0"/><path class="f" d="M460.58,68.25h-3.2v-4.68h20.07c1.63,1.79,3.47,3.82,5.28,5.81v9.93c-1.49,1.48-3.12,3.1-4.87,4.83,1.31,2.15,2.66,4.39,4.04,6.67h2.68v4.69h-8.97v-4.84h.9s-2.61-3.99-3.94-6.01h-6.52v6.13h2.68v4.79h-11.33v-4.66h3.19v-22.65Zm5.44,11.47h8.85c.9-.9,1.74-1.74,2.59-2.59v-6.01c-.96-1.04-2.74-2.96-2.74-2.96h-8.7"/><path class="f" d="M312.9,139.25v9.11h10.42v-5.12h4.8v9.88h-23.86c-.02-.66-.06-1.42-.08-2.19-.01-.79,0-1.58,0-2.45h3.25v-22.59h-3.15v-4.79h23.82v10.44c-.67,.02-1.44,.06-2.21,.07-.79,.01-1.57,0-2.44,0v-5.65h-10.56c0,2.79,0,8.35,0,8.35v.59h11.35v4.35"/><path class="f" d="M250.38,22.17v9.94l-5.33,5.9h-12.7l-4.91-5.5v-6.4h4.72v4.44l1.62,1.6s.99,.69,1.52,1.04h7.21l2.57-2.67v-6.74l-2.05-2.05h-9.83l-5.31-5.31V6.61l4.83-5.48h11.93l5.26,5.88v6.49h-4.55l-.24-4.57-3.08-3.08c-1.47,0-2.99,.07-4.5-.02-1.51-.09-2.73,.36-3.71,1.5-.21,.24-.45,.45-.68,.68,0,2.24,0,4.48,0,6.72,.68,.68,1.36,1.36,2.12,2.12h10.21"/><path class="f" d="M245.19,124.22l-3.2-3.13h-6.28l-2.54,1.94v6.92l2.33,2.14h10.03s-.09-.08,0,0c1.62,1.53,3.37,3.65,4.84,5.01v10.2c-1.67,1.87-3.5,3.91-5.27,5.89h-12.73l-4.98-5.52v-6.39l4.74-.08v4.62c1.03,.9,2.91,2.56,2.91,2.56h7.3c.91-.91,1.81-1.81,2.81-2.82v-6.51l-2.13-2.11h-10.07c-1.72-1.72-3.36-3.36-5.04-5.04v-10.05l5.2-5.58h11.48c1.68,1.88,5.3,5.93,5.3,5.93v5.88l-.65,.65-4.06,.02"/><path class="f" d="M435.78,77.37h10.88v4.25h-10.9v9.07h9.98v-5.08h4.79v9.9h-23.39c-.02-.66-.06-1.43-.08-2.19-.01-.79,0-1.58,0-2.45h3.24v-22.57h-3.13v-4.8h23.31v10.44h-4.68v-5.66h-10.02v9.08Z"/><path class="f" d="M406.33,125.85h-3.2v-4.68h23.37v10.34h-4.69v-5.55h-10.07v8.93h10.92c.13,1.46,.03,2.86,.07,4.33h-10.93v9.13h9.91v-5.15h4.75v9.97h-23.33v-4.74h3.18v-22.57Z"/><path class="f" d="M371.04,95.55l-5.46-6.03v-21.24h-2.74v-4.79h11.34v4.77h-3.2v19.98l2.53,2.53h8.27l2.51-1.91v-20.57h-3.2v-4.79h11.34v4.81h-2.73v21.72l-4.99,5.53"/><path class="f" d="M281.15,69.3s-.02,14.36-.02,20.78l-5.49,5.49h-13.26l-5.72-5.72v-20.76l5.65-5.65c4.36,0,8.83,0,13.3,0m-11.62,27.36h9.05l2.8-2.8v-17.14l-2.58-2.58h-8.73l-2.59,2.59v17.19l2.05,2.73Z"/><path class="f" d="M450.62,121.05l4.69,4.97v7.41h-4.69v-4.59l-2.98-2.98h-6.38c-.88,.9-1.77,1.8-2.68,2.74v4.22l2.1,2.1h9.78c1.81,1.81,3.49,3.49,5.36,5.36v7.3c-1.68,1.85-3.37,3.7-5.12,5.62h-12.52c-1.75-1.93-3.59-3.97-5.35-5.91v-5.98h5.21v4.15l3.02,2.95c1.47,0,5.13,.02,5.13,.02h2.75l1.63-1.29v-5.1c-.79-.79-1.52-1.52-2.3-2.3h-9.48l-5.47-5.47v-7.24c1.76-1.98,3.59-4.02,5.34-5.99"/><path class="f" d="M345.82,95.61h-12.28c-.03-.75-.07-1.51-.08-2.28-.01-.79,0-1.58,0-2.45h3.24v-22.56h-3.13v-4.81h19.39l5.41,5.41v10.36c-1.88,1.88-3.73,3.73-5.81,5.81h-10.41v5.69h3.66v4.82Zm-3.64-27.48v12.08h8.97c.79-1,1.61-2.03,2.4-3.04v-5.69l-3.34-3.34"/><path class="f" d="M328.76,38.01c-1.55-1.75-3.15-3.58-4.84-5.49V11.4l4.82-5.51h13.99l5.11,5.59v20.89l-4.96,5.64h-14.12Zm13.82-6.92V12.9l-2.15-2.24h-8.87l-2.86,2.86V30.61l2.6,2.6c2.45,0,8.35,.02,8.35,.02"/><path class="f" d="M453.93,11.5v20.88c-1.66,1.9-3.26,3.73-4.87,5.57h-14.25c-1.55-1.78-3.16-3.61-4.84-5.53V11.49c1.66-1.87,3.32-3.74,4.99-5.63h14l4.97,5.64Zm-16.55,21.71h8.94l2.79-2.79V13.27c-.87-.87-1.72-1.72-2.56-2.57h-9.23l-2.04,2.04V31.11c.74,.75,1.42,1.42,2.1,2.1Z"/><path class="f" d="M374.13,38h-14.11c-1.56-1.78-3.16-3.61-4.9-5.6V11.45l4.92-5.56h14.07c1.53,1.73,3.18,3.61,4.92,5.59v20.92c-1.64,1.88-3.29,3.76-4.9,5.6Zm-13.79-25.2V30.99l2.15,2.21h8.87l2.86-2.84V13.25l-2.54-2.54h-9.23l-2.12,2.09Z"/><path class="f" d="M250.83,71.13h-4.71l-.02-2.28v-2.04l-3.28-3.28h-7.23l-2.39,1.9v23.28l1.16,1.16,2.49,.95h5.85l3.4-3.41v-3.72s1.53-.06,2.3-.07c.79-.01,1.57,0,2.43,0v6.13l-5.25,5.83h-12.45l-5.25-5.55v-25.81l4.8-5.47h12.92l5.23,5.85"/><path class="f" d="M484.61,5.93v10.4h-4.7v-5.61h-10.04v9.02h10.84v4.34h-10.86v9.05h3.68v4.77h-12.34v-4.65h3.24V10.67h-3.26V5.93h23.43Z"/><path class="f" d="M279.63,11.48v6.8h-4.64v-4.41l-3.22-3.18h-7l-2.83,2.83V30.5l2.06,2.69h7.79l3.15-3.15v-3.98h4.66v6.51l-5.41,5.39h-11.79l-5.75-5.75V11.39l5.54-5.48h12.05l5.38,5.57Z"/><path class="f" d="M279.61,147.77l-5.39,5.39h-11.82c-1.88-1.88-3.73-3.73-5.73-5.73v-20.7c1.92-1.92,3.78-3.78,5.68-5.68h11.89c1.8,1.87,3.69,3.84,5.4,5.61v6.81h-4.64v-4.42l-3.2-3.17h-7.04l-2.81,2.82v17l2.07,2.68h7.79c1.04-1.04,2.06-2.06,3.16-3.16v-3.97h4.66v6.51Z"/><path class="f" d="M406.81,68.29h-5.61v5.6h-4.32v-10.35h25.32v10.37h-4.25v-2.66s-.02-1.9-.02-2.93h-5.64v22.42h4.58v4.8h-14.68v-4.73h4.62v-22.53Z"/><path class="f" d="M392.58,127.8l-3.16-1.91h-7.54l-2.82,2.82v17.06c.84,.84,1.7,1.68,2.61,2.59h7.48c.96-.85,3.2-2.97,3.2-2.97l.06-4.07h4.34v6.27c-1.6,1.81-3.26,3.68-4.97,5.62h-12.62c-1.56-1.75-3.23-3.62-4.9-5.49v-21.12c1.65-1.87,3.31-3.76,4.89-5.54h12.36c1.81,1.92,3.49,3.68,5.25,5.55v6.84h-4.13"/><path class="f" d="M398.69,5.93v4.66h-3.68v22.56h9.47v-5.17h4.26v9.91h-22.4v-4.63h3.23V10.67h-3.25V5.93h12.38Z"/><path class="f" d="M288.73,125.83h-3.68v-4.68h12.83v4.6h-3.72l.02,22.58h3.75v4.81h-12.86v-4.72h3.66v-22.59Z"/></g><g><path class="c" d="M119.29,38.14c3.99-4.16,9.06-6.77,14.04-9.41,5.5-2.92,11.07-5.73,17.17-7.3,4.44-1.14,8.93-2,13.51-1.5,9.72,1.06,16.48,6.56,21.1,14.82,3.2,5.71,.35,11.33-6.02,12.46-3.73,.67-7.5,.46-11.25,.23-5-.31-9.5,1.06-13.51,3.95-2.74,1.97-3.4,4.34-2.46,7.61,1.59,5.51,5.04,8.73,10.85,9.8,7.99,1.48,16.15,2.22,23.85,5.16,7.69,2.94,14.58,6.9,19.41,13.81,5.45,7.79,6.99,16.65,6.31,25.82-2.19,29.3-14.39,53.77-36.52,73.08-17.28,15.09-37.59,23.31-60.44,25.18-21.04,1.72-40.83-2.62-59.43-12.54-.42-.22-.8-.52-1.2-.78,3.07-.41,6.17-.69,9.21-1.24,12.82-2.32,25.65-4.57,38.06-8.73,12.06-4.04,23.68-8.84,33.87-16.68,8.51-6.55,16.53-13.53,21.75-23.15,5.32-9.8,7.7-20.18,5.94-31.32-1.09-6.87-3.61-13.08-9.11-17.63-5.94-4.92-12.97-7.87-20.3-9.78-8.01-2.08-15.21-5.6-21.77-10.47-3.44-2.55-6.1-5.96-7.34-10.08-1.71-5.69,.36-10.89,3.26-15.64,2.98-4.89,6.23-9.64,10.27-13.77,.53-.54,.91-1.11,.76-1.91Z"/><path class="f" d="M22.74,41.3c4.71-6.73,10.61-12.31,16.93-17.47C56.06,10.41,74.88,2.63,95.89,.41c8.93-.94,17.9-.3,26.62,2.17,3.89,1.1,7.48,2.78,9.9,6.29,1.84,2.67,1.3,4.46-1.83,5.33-4.08,1.13-8.31,1.82-12.26,3.28-12.37,4.56-22.26,12.67-30.9,22.43-5.23,5.92-9.63,12.38-11.7,20.11-3.54,13.24,2.62,28.89,14.32,37.06,7.92,5.53,16.92,7.62,26.33,8.61,6.06,.64,12.01,1.9,17.49,4.72,8.13,4.18,9.92,12.04,4.53,19.41-2.8,3.83-5.96,7.26-9.91,9.92-.11-.9-.61-.88-1.37-.74-7.34,1.31-14.66,2.68-22.04,3.81-9.84,1.51-19.73,2.3-29.63,2.62-6.25,.2-12.56-.31-18.75-1.4-4.94-.87-9.85-1.9-14.32-4.36-6.13-3.37-11.55-7.59-16.3-12.75-4.8-5.21-8.13-11.24-10.26-17.9-3.3-10.33-3.63-20.87-2.11-31.6,1.47-10.38,4.23-20.37,7.9-30.15,.72-1.92,1.92-3.71,1.78-5.9l.11-.2-.11,.2-.64-.07Z"/><path class="b" d="M22.74,41.3l.64,.07h0c.14,2.18-1.06,3.98-1.78,5.89-3.67,9.78-6.43,19.77-7.9,30.15-1.52,10.73-1.19,21.27,2.11,31.6,2.13,6.66,5.46,12.69,10.26,17.9,4.75,5.16,10.18,9.38,16.3,12.75,4.47,2.46,9.38,3.49,14.32,4.36,6.2,1.09,12.51,1.61,18.75,1.4,9.91-.32,19.8-1.11,29.63-2.62,7.38-1.13,14.7-2.5,22.04-3.81,.76-.13,1.26-.15,1.37,.74h-.01c-.43,0-.76,.16-.94,.57-3.1,3.4-7.04,5.71-10.88,8.09-21.76,13.53-45.39,17.32-70.44,13.03-10.27-1.76-19.9-5.2-27.98-12.14C6.59,139.29,.72,126.55,.1,111.31-.97,85.53,6.78,62.54,22.05,41.94c.18-.25,.45-.43,.68-.64Z"/><path class="d" d="M119.29,38.14c.16,.8-.23,1.36-.76,1.91-4.05,4.12-7.29,8.88-10.27,13.77-2.9,4.75-4.96,9.95-3.26,15.64,1.24,4.13,3.89,7.53,7.34,10.08,6.57,4.87,13.76,8.39,21.77,10.47,7.33,1.91,14.36,4.86,20.3,9.78,5.5,4.56,8.03,10.77,9.11,17.63,1.76,11.14-.63,21.52-5.94,31.32-5.22,9.62-13.23,16.6-21.75,23.15-10.19,7.84-21.82,12.65-33.87,16.68-12.41,4.16-25.24,6.41-38.06,8.73-3.05,.55-6.14,.83-9.21,1.24-6.4-3.02-12.16-6.98-17.39-11.72-.64-.58-1.1-1.37-1.55-2.12-.82-1.37-1.25-2.88-.15-4.26,1.12-1.4,2.72-1.3,4.18-.64,4.31,1.95,8.92,2.43,13.52,2.92,24.25,2.57,47.23-1.72,68.45-13.78,9.56-5.44,19.1-11.22,26.18-19.97,8.27-10.24,11.61-21.94,9.01-34.98-1.35-6.78-5.62-11.74-11.14-15.64-8.66-6.13-18.55-8.72-28.92-9.97-3.47-.42-7.04-.28-10.37-1.61-4.41-1.76-8.12-4.47-10.97-8.25-3.38-4.49-3.28-9.38-1.12-14.32,2.92-6.67,7.84-11.81,13.11-16.64,3.71-3.4,7.46-6.76,11.78-9.41Z"/><path class="f" d="M127.53,140.31c.18-.41,.51-.56,.94-.56-.19,.38-.44,.69-.94,.56Z"/><path class="b" d="M23.38,41.37l.11-.2-.11,.2h0Z"/></g><line class="e" x1="225.4" y1="177.95" x2="484.46" y2="177.95"/></svg>