<?xml version="1.0" encoding="UTF-8"?><svg xmlns="http://www.w3.org/2000/svg" viewBox="0 0 447.12 108"><defs><style>.d{fill:#fff;}.e{fill:#4d1c6b;}.f{fill:#ffea57;}.g{fill:#1e1e1c;}.h{fill:#ffde44;}.i{fill:#39a736;}.j{fill:#e00918;}.k{fill:#f18700;}.l{fill:#1d1d1b;}</style></defs><g id="a"/><g id="b"><g id="c"><g><polygon class="d" points="229.02 107.99 277.88 107.99 253.38 53.84 229.02 107.99"/><path class="e" d="M416.64,80l15.35-26.09h-22.45l-5.52,12.98-5.6-12.98h-63.47v12.71c-1.82-10.34-8.52-12.71-18.49-12.71h-38.58l24.46,54.08h0v-14.86h13.61c11.12,0,17.28-5.43,18.99-14.44v29.31h62.98l5.6-14.44,5.88,14.44h22.74l-15.49-28Zm-107.86,.25h-6.44v-12.13h7.58c3.87,0,5.81,1.73,5.81,5.95,0,4.44-2.22,6.17-6.96,6.17Zm45.89-11.25h22.1v-13.37l11.18,19.1h-33.28v-5.73Zm0,24.04v-5.7h32.32l-10.23,18.57v-12.87h-22.1Z"/><path class="g" d="M434.89,48.08v-6.56h-2.49v-1.14h6.29v1.14h-2.51v6.56h-1.29Zm4.66,0v-7.7h1.89l1.95,6.15,1.88-6.15h1.85v7.7h-1.17v-6.46l-1.98,6.46h-1.16l-2.07-6.56v6.56h-1.18Z"/><polygon class="e" points="253.49 0 204.65 107.99 229.02 107.99 253.38 53.84 277.88 107.99 302.34 107.99 253.49 0"/><g><polygon class="k" points="253.38 107.99 265.65 80.95 241.19 80.95 253.38 107.99"/><polygon class="k" points="302.34 107.99 290.11 80.95 277.88 107.99 302.34 107.99"/><polygon class="k" points="265.65 80.95 290.11 80.95 277.87 53.92 265.65 80.95"/></g></g><g><g><rect class="d" y="86.25" width="175.68" height=".68"/><path class="d" d="M5.11,104.78c0,1.04-.39,1.57-1.47,1.57s-1.5-.53-1.5-1.57v-12.2H0v11.84c0,1.78,.7,3.58,3.63,3.58s3.61-1.8,3.61-3.58v-11.84h-2.14v12.2Z"/><polygon class="d" points="14.27 105.29 14.23 105.29 11.71 92.57 8.76 92.57 8.76 107.87 10.64 107.87 10.64 94.82 10.68 94.82 13.2 107.87 16.28 107.87 16.28 92.57 14.27 92.57 14.27 105.29"/><rect class="d" x="17.79" y="92.57" width="2.13" height="15.3"/><polygon class="d" points="25.23 104.74 25.19 104.74 22.96 92.57 20.83 92.57 23.96 107.87 26.44 107.87 29.59 92.57 27.45 92.57 25.23 104.74"/><polygon class="d" points="30.55 107.87 36.36 107.87 36.36 106.09 32.68 106.09 32.68 100.92 36.14 100.92 36.14 99.14 32.68 99.14 32.68 94.35 36.36 94.35 36.36 92.57 30.55 92.57 30.55 107.87"/><path class="d" d="M43.94,102.59c0-1.44-.49-2.18-1.95-2.33v-.04c1.75-.53,2.03-1.42,2.03-3.48,0-3.35-.32-4.17-3.44-4.17h-3.31v15.3h2.14v-6.66h.73c1.41,0,1.66,.38,1.66,1.83v3.45c0,.62,.04,1,.26,1.38h2.01c-.12-.64-.12-1.4-.12-1.95v-3.33Zm-3.98-3.16h-.55v-5.08h1.02c1.33,0,1.46,.21,1.46,2.48s-.24,2.6-1.93,2.6Z"/><path class="d" d="M47.49,95.77c0-1.18,.41-1.67,1.28-1.67s1.2,.51,1.2,1.38v1.21h2.01v-1.44c0-1.08-.26-1.61-.62-1.95-.51-.47-1.34-.85-2.5-.85-2.33,0-3.51,1.08-3.51,3.58,0,2.08,1.13,3.31,2.5,4.67,2.21,2.18,2.28,2.6,2.28,3.89,0,1-.28,1.76-1.41,1.76-.85,0-1.24-.63-1.24-1.65v-1.25h-2.14v1.82c0,1.91,1.35,2.73,3.31,2.73,2.54,0,3.48-1.38,3.48-3.77,0-1.84-.38-2.59-2.48-4.75-1.96-2.03-2.18-2.67-2.18-3.71Z"/><rect class="d" x="53.13" y="92.57" width="2.13" height="15.3"/><polygon class="d" points="56.12 94.35 58.68 94.35 58.68 107.87 60.82 107.87 60.82 94.35 63.38 94.35 63.38 92.57 56.12 92.57 56.12 94.35"/><rect class="d" x="64.23" y="92.57" width="2.14" height="15.3"/><polygon class="d" points="118.04 104.23 117.99 104.23 116.02 92.57 112.63 92.57 112.63 107.87 114.51 107.87 114.51 94.1 114.55 94.1 116.95 107.87 119.08 107.87 121.26 94.1 121.3 94.1 121.3 107.87 123.31 107.87 123.31 92.57 120 92.57 118.04 104.23"/><path class="d" d="M127.4,92.57l-3.4,15.3h2.13l.71-3.9h3.33l.71,3.9h2.14l-3.14-15.3h-2.48Zm-.23,9.62l1.34-7.37h.05l1.32,7.37h-2.71Z"/><polygon class="d" points="135.92 92.57 133.78 92.57 133.78 107.87 139.51 107.87 139.51 106.09 135.92 106.09 135.92 92.57"/><path class="d" d="M143.49,92.57l-3.4,15.3h2.14l.7-3.9h3.33l.71,3.9h2.14l-3.14-15.3h-2.47Zm-.24,9.62l1.34-7.37h.04l1.32,7.37h-2.71Z"/><polygon class="d" points="153.88 92.57 151.74 99.01 151.7 99.01 149.84 92.57 147.7 92.57 150.65 101.6 150.65 107.87 152.79 107.87 152.79 101.6 155.76 92.57 153.88 92.57"/><path class="d" d="M157.79,95.77c0-1.18,.4-1.67,1.29-1.67,.83,0,1.2,.51,1.2,1.38v1.21h2v-1.44c0-1.08-.25-1.61-.62-1.95-.51-.47-1.35-.85-2.5-.85-2.32,0-3.5,1.08-3.5,3.58,0,2.08,1.13,3.31,2.5,4.66,2.22,2.18,2.29,2.61,2.29,3.89,0,1-.28,1.76-1.41,1.76-.85,0-1.24-.63-1.24-1.65v-1.25h-2.14v1.82c0,1.91,1.35,2.73,3.31,2.73,2.54,0,3.48-1.38,3.48-3.77,0-1.84-.38-2.59-2.48-4.75-1.97-2.03-2.18-2.67-2.18-3.71Z"/><rect class="d" x="163.52" y="92.57" width="2.14" height="15.3"/><path class="d" d="M170.02,92.57l-3.4,15.3h2.13l.71-3.9h3.33l.71,3.9h2.13l-3.14-15.3h-2.48Zm-.24,9.62l1.35-7.37h.04l1.33,7.37h-2.71Z"/><path class="d" d="M73.88,95.77c0-1.19,.41-1.67,1.28-1.67s1.2,.51,1.2,1.38v1.21h2.01v-1.44c0-1.08-.26-1.61-.62-1.95-.51-.47-1.35-.85-2.5-.85-2.33,0-3.5,1.08-3.5,3.58,0,2.08,1.13,3.31,2.5,4.67,2.22,2.18,2.28,2.61,2.28,3.9,0,.99-.27,1.75-1.41,1.75-.86,0-1.24-.63-1.24-1.65v-1.25h-2.13v1.82c0,1.91,1.34,2.74,3.31,2.74,2.54,0,3.48-1.38,3.48-3.77,0-1.84-.38-2.59-2.48-4.75-1.96-2.03-2.18-2.67-2.18-3.71Z"/><path class="d" d="M82.13,92.57l-3.4,15.3h2.14l.71-3.9h3.33l.71,3.9h2.13l-3.14-15.3h-2.48Zm-.24,9.62l1.35-7.38h.04l1.33,7.38h-2.71Z"/><rect class="d" x="88.45" y="92.57" width="2.14" height="15.3"/><polygon class="d" points="97.66 105.29 97.62 105.29 95.09 92.57 92.15 92.57 92.15 107.87 94.03 107.87 94.03 94.82 94.07 94.82 96.59 107.87 99.67 107.87 99.67 92.57 97.66 92.57 97.66 105.29"/><path class="d" d="M102.85,95.77c0-1.19,.41-1.67,1.28-1.67s1.2,.51,1.2,1.38v1.21h2.01v-1.44c0-1.08-.26-1.61-.62-1.95-.52-.47-1.35-.85-2.5-.85-2.33,0-3.51,1.08-3.51,3.58,0,2.08,1.13,3.31,2.5,4.67,2.22,2.18,2.28,2.61,2.28,3.9,0,.99-.28,1.75-1.41,1.75-.85,0-1.24-.63-1.24-1.65v-1.25h-2.14v1.82c0,1.91,1.35,2.74,3.31,2.74,2.54,0,3.48-1.38,3.48-3.77,0-1.84-.38-2.59-2.48-4.75-1.96-2.03-2.18-2.67-2.18-3.71Z"/><path class="d" d="M102.21,76.12c2.59,0,4.98-.8,6.93-2.16v1h1.38v-2.11c1.84-1.74,3.09-4.05,3.45-6.63l.02,.02v8.72h8.9l-.14-.14h8.64c-.09,.04-.17,.1-.26,.14h15.15V37.41l7.88,37.56,7.87-37.56v37.56h8.49V18.53h-10.95l-5.42,25.23-5.42-25.23h-10.59v-.07h-24.41v.07h-8.15v47.03c0,1.79-1.51,3.23-3.37,3.23s-3.37-1.45-3.37-3.23V18.53h-8.48v46.2c0,6.29,5.3,11.39,11.86,11.39Z"/><rect class="d" x="174.31" y="18.53" width="1.37" height="56.43"/><rect class="d" x="85.56" y="18.53" width="1.37" height="56.43"/><path class="d" d="M5.57,56.47c2.28,2.79,1.11,5.41-.27,6.78-.31,.24-.56,.42-.73,.61h0s-.02,.02-.03,.03c-.02,.01-.05,.03-.05,.05-.04,.04-.07,.1-.09,.17-.18,.35-.22,.83-.19,1.41-.49,.16-1.12,.56-1.41,1.43,.64-.3,1.26-.2,1.64-.16-.4,.25-1.01,1.16-1.1,1.82,.3-.19,1.02-.43,1.44-.37-.34,.2-1.03,.73-1.42,1.54,.82-.16,1.3-.15,1.65,.02,.07,.43,.11,.96,.11,1.31s1.36,.91,2.62,1.11c.69,.12,1.15,.49,1.77,.63-.79,.48-2.58,.56-3.12-.18-.19,.19,.07,.76,.62,1.04,.92,.48,2.82,2.75,3.23,3.79,3.9,.98,3.69-2.38,3.69-3.64,0-2.21,.33-3.47,1.05-3.95,.57-.38,1.47-.33,2.81,.17-.13,.81-.33,1.62-.64,2.32l-.05,.1,.03,.1c2.1,3.08,9.87,5.67,20.16,5.67h0c10.29,0,18.06-2.59,20.16-5.67l.03-.1-.05-.1c-.32-.69-.52-1.51-.65-2.32,1.35-.5,2.25-.55,2.82-.17,.71,.48,1.05,1.74,1.05,3.95,0,1.26-.22,4.61,3.68,3.64,.41-1.03,2.3-3.3,3.23-3.79,.55-.29,.81-.86,.62-1.04-.54,.74-2.32,.66-3.12,.19,.62-.14,1.08-.52,1.77-.63,1.25-.2,2.61-.77,2.61-1.11s.04-.88,.11-1.31c.35-.17,.83-.19,1.65-.03-.39-.82-1.08-1.35-1.41-1.54,.41-.06,1.13,.17,1.43,.37-.09-.67-.7-1.58-1.1-1.82,.38-.04,1-.13,1.64,.17-.29-.88-.92-1.27-1.41-1.43,.04-.61-.02-1.12-.22-1.47-.02-.04-.04-.09-.06-.12l-.04-.03s-.02-.04-.04-.05v.02s-.01,0-.02-.01c-.17-.19-.43-.38-.74-.62h.02c-1.38-1.35-2.55-3.98-.27-6.77,6.92,1.45,5.88-6.89,3.89-11.13-1.77-3.77-4.25-8.18-2.79-10.75,.93-1.65,2.92-.52,3.45-1.57,.42-.85-3.36-2.85-5.6,1.18-1.09,1.95-.62,4.58,.49,6.33,0-.01,0-.03-.01-.04,.07,.17,.14,.33,.21,.5,3.39,7.07,3,10.78,2.33,11.45-.49,.49-1.02,.37-1.32-.61-.29-.98-1.49-4.75-4.02-7.65,0,0,0-.02-.01-.02-.05-.09-.15-.28-.25-.44-.17-.34-.28-.66-.38-1.01h0c-.39-1.35-.65-1.84-1.14-2.95,.23-.9,.51-2.4,.34-3.87,.16-.97,.86-1.42,1.95-2.5,1.83-1.81,3.91-5.17,2.86-10.61,1.28-1.03,1.59-2.41,1.59-2.41,0,0-.8-.45-1.99-.33-.01,0-.02,0-.04,0-.24,0-.52,.03-.79,.06-.06-.04-.18-.12-.4-.24,.11-.38,.34-1.26,.14-1.45-.65,.37-1.12,.67-1.42,.88-1.24-.43-3-.73-4.87,.03h.01c-.25,.04-.47,.09-.66,.13,0,0,.01,0,.02,0-.04,0-.07,.02-.11,.03-.17,.04-.31,.08-.4,.1-.07,.02-.15,.06-.22,.1-.39,.16-.63,.35-.72,.55-.53,.11-1.47,.35-1.89,.74-.22,.08-.4,.15-.53,.22-1.14,.26-1.02,.61-.4,1.22,.26,2.04,.73,2.5,1.95,2.5,.86,0,1.64-.6,2.46-.17,.41,.41,.69,1.18,.38,1.75,0,.01-.02,.03-.02,.04-.29-.42-1.27-1.51-3.52-1.16-.2,.02-.4,.02-.61,0-.59-.03-1.22-.71-1.33-1.3-.02-.08-.06-.07-.09-.02-.65,1.5,.6,2.07,1.53,2.14-.12,.2-.18,.43-.18,.66-.77,.52,.3,2.16,.52,2.16,0-.83,.77-1.12,1.09-.91,.25,.17,.38,.53,.1,.81-.39,.39-2.31,.3-3.24,.5,.12,.12,.28,.24,.28,.4-1.55,.68-2.26,1.66-2.37,1.76h0c-.45,.1-.67-.01-.67-.01,0,0,.1-3.74,.45-4.65,.51-1.32,.95-2.33,1.37-2.75,.44-.43,.51-.89,.51-1.28,0-.68-.61-.81-.61-.81,0,0,.03-.29,.03-.97,.39-.88-.32-1.67-1.07-1.86,.87-2.53,3.98-1.96,4.42,.83,1.3-3.36-.79-4.14-1.57-4.14,.55-.27,3.05-.75,4.13,.98,.17-2.92-2.28-3.02-2.93-3.07,.28-.11,.59-.17,.93-.17,.8,0,2.37,.15,3.43,1.24-.7-1.68-2.16-2.5-3.32-2.67,.21-.03,.43-.05,.66-.05,1.05,0,2.89,.31,4.06,1.34-.47-1.85-2.07-2.71-3.36-2.9,.97-.14,2.87-.25,3.92,.82-.6-1.35-1.96-2.16-2.98-2.4,.29-.06,2.12-.53,3.76,.75-.55-1.52-2.17-2.5-3.64-2.62,2.2-.33,3.5,.18,4.82,1.2-4.34-7.17-13.41-1.86-14.18,10.84-.32,.21-.38,.62-.38,.76-1.81,.2-1.75,1.58-1.61,1.87-1.37,.89-.48,2.96-.48,2.96l.11,2.41c-.04,.3-.09,.62-.15,.95-.65,1.4-1.73,6.82-1.1,7.45,.28,.27,2.12,2.12,2.99,2.87-1.05,1.25-2.4,2.81-3.4,3.84l.24-18.42-3.2-4.97c.34-.08,.64-.27,.77-.57,.5-1.18-.81-2.41-2.27-1.92-.23-.45-1.39-.81-2.43-.7,2.84-1.23,4.83-4.03,4.83-7.29,0-.98-.35-2.32-.54-2.87-.47,4.65-3.66,7.5-7.49,7.5h-.01c-3.69,0-6.78-2.68-7.41-7.05,0-.1,0-.21,0-.31-.02,.04-.03,.08-.04,.13-.01-.09-.04-.17-.05-.26-.19,.55-.54,1.88-.54,2.87,0,3.26,1.99,6.07,4.84,7.29-1.05-.12-2.23,.25-2.47,.7-1.46-.49-2.78,.74-2.28,1.92,.13,.32,.46,.5,.83,.58l-3.23,4.96,.24,18.41c-1-1.02-2.34-2.58-3.39-3.84,.87-.75,2.71-2.6,2.99-2.88,.63-.62-.47-6.15-1.12-7.49,0,.02,0,.03,0,.05-.06-.32-.11-.63-.15-.92,0,0,0,.03,0,.03l.11-2.48s.89-2.07-.48-2.96c.13-.29,.19-1.67-1.62-1.87,0-.13-.05-.54-.38-.75C22.38,6.51,13.31,1.2,8.96,8.37c1.33-1.02,2.62-1.52,4.82-1.2-1.47,.11-3.09,1.1-3.64,2.61,1.64-1.29,3.48-.81,3.76-.75-1.02,.23-2.38,1.05-2.98,2.4,1.05-1.07,2.94-.96,3.92-.82-1.3,.19-2.89,1.05-3.36,2.9,1.17-1.03,3-1.34,4.06-1.34,.23,0,.45,.02,.66,.04-1.16,.17-2.61,.99-3.31,2.68,1.06-1.09,2.63-1.24,3.43-1.24,.34,0,.65,.05,.93,.17-.65,.05-3.1,.15-2.93,3.07,1.07-1.73,3.58-1.25,4.13-.97-.77,0-2.87,.78-1.57,4.13,.33-2.09,2.15-2.93,3.41-2.17,.01,0,.03,.02,.04,.03,.41,.26,.76,.69,.97,1.31-.75,.19-1.46,.98-1.07,1.86,0,.68,.03,.97,.03,.97,0,0-.61,.12-.61,.81,0,.39,.07,.84,.51,1.28,.42,.42,.85,1.43,1.37,2.75,.35,.92,.46,4.65,.46,4.65,0,0-.21,.09-.59,.02-.14-.15-.91-.99-2.46-1.77,0-.16,.16-.28,.28-.4-.93-.2-2.84-.11-3.24-.5-.28-.28-.16-.64,.09-.81,.32-.21,1.1,.08,1.1,.91,.22,0,1.29-1.64,.52-2.15,0-.23-.05-.46-.17-.66,.92-.07,2.18-.65,1.53-2.14-.02-.05-.07-.06-.09,.01-.11,.6-.76,1.3-1.35,1.31-.17,.01-.35,0-.52,0-2.3-.39-3.3,.72-3.59,1.15,0-.01-.02-.03-.03-.04-.31-.57-.03-1.34,.38-1.75,.83-.43,1.61,.17,2.46,.17,1.23,0,1.7-.46,1.96-2.5,.63-.62,.74-.97-.43-1.23-.13-.07-.3-.13-.5-.21h.02c-.4-.39-1.37-.64-1.91-.75-.11-.23-.41-.45-.94-.63,0,0-.01,0-.02,0-.03,0-.09-.02-.14-.03-.12-.03-.22-.07-.36-.1,.02,0,.03,.02,.05,.03-.22-.05-.49-.11-.81-.16,.04,0,.09,0,.13,0-1.86-.76-3.63-.46-4.87-.03-.3-.21-.77-.52-1.42-.88-.19,.19,.03,1.08,.14,1.45-.23,.13-.35,.21-.41,.25-.25-.03-.49-.06-.72-.06-1.24-.15-2.08,.32-2.08,.32,0,0,.31,1.38,1.59,2.41h0c-1.05,5.44,1.03,8.8,2.86,10.61,1.1,1.08,1.79,1.54,1.96,2.51-.17,1.47,.11,2.96,.34,3.86-.49,1.1-.75,1.6-1.15,2.95-.09,.32-.2,.63-.35,.94-.1,.19-.23,.41-.29,.52,0,.02-.02,.04-.03,.05-2.5,2.9-3.7,6.64-3.99,7.62-.3,.99-.82,1.11-1.32,.61-.67-.66-1.05-4.38,2.34-11.45-.02,.03-.04,.06-.05,.09,.1-.21,.19-.42,.28-.64,0,.03-.02,.06-.03,.09,1.12-1.75,1.58-4.37,.5-6.33-2.25-4.03-6.03-2.03-5.6-1.17,.52,1.04,2.5-.08,3.44,1.57,1.46,2.57-1.02,6.98-2.79,10.75-1.99,4.25-3.03,12.58,3.89,11.13ZM66.19,20.39h0l-.04,.02,.05-.02Zm-19.01,36.94l.08-6.54s.07,0,.11-.02c.09,.2,.31,.55,.79,.63-.19-.17-.25-.56-.28-.77,.34-.13,.61-.34,.83-.71-.02,0-.03,.01-.05,.02,.07-.09,.12-.18,.16-.25,.03-.03,.05-.06,.08-.09,.14,0,.29-.03,.43-.1,.1,.14,.33,.35,.8,.27-.22-.1-.34-.37-.4-.54,.31-.31,.46-.79,.27-1.37-.04-.24-.12-.46-.19-.62,0-.19,.03-.4,.12-.63,.97-1.19,2.61-2.33,3.65-2.71,1.27,2.33,4.46,3.41,6.39,5.09-1.59-.15-6.02,.11-7.65,2.44,.01,0,.02-.02,.04-.03-.13,.15-.24,.31-.35,.48,.02-.03,.03-.07,.04-.1-.87,.75-1.06,4.42-1.06,5.56,0,.23-.19,.48-.43,.62-.85,.52-1.88,.52-2.41,.42-.02,0-.03,0-.04,0-.34-.34-.83-.52-1.31-.54l.39-.49Zm-26.22-13.45c1.03,.38,2.66,1.51,3.63,2.69,.1,.24,.14,.45,.13,.65-.07,.17-.16,.41-.2,.67-.16,.56,0,1.02,.3,1.32-.05,.17-.18,.45-.39,.55,.46,.08,.7-.13,.8-.27,.13,.06,.27,.09,.41,.1,.02,.03,.05,.07,.08,.1,.04,.07,.09,.15,.14,.23,0,0-.01,0-.02-.01,.22,.38,.49,.59,.83,.72-.03,.2-.09,.6-.28,.77,.48-.08,.7-.43,.79-.63,.03,0,.07,.01,.1,.02l.08,6.45v.1l.38,.48c-.47,.02-.96,.21-1.3,.54,0,0-.02,0-.03,0-.53,.1-1.58,.11-2.43-.41-.23-.14-.43-.4-.43-.63,0-1.13-.18-4.81-1.06-5.56,.02,.04,.05,.1,.07,.17-.14-.23-.3-.44-.49-.64,.05,.04,.1,.07,.14,.12-1.63-2.32-6.06-2.59-7.65-2.43,1.94-1.68,5.12-2.76,6.39-5.09ZM12.72,26.13s0,.04,0,.06c0-.01,0-.03-.01-.04,0,0,0-.01,0-.02Zm-3.57,38.6c.16-.47,4.67-3.14,6.27-6.12,.45-.84,.61-1.62,.41-2.43,.58-.12,1.85-.25,2.8,.69,1.02,1.02-.04,4.34,.46,4.48,.49,.15,1.17,.49,1.17,.49,0,0,.45,.57,.14,1.72,.85-.42,1.66-1.22,1.66-1.22,0,0,.28,.92,.13,1.66,.85-.29,1.93-1.69,1.93-1.69,0,0,.46,.58,.46,1.45,.61-.27,1.29-.82,1.5-1.33,1.09-.08,1.9,.54,2.8,.01,.12-.07,.62,.34,.89,.91,.16-.46,.02-1.24-.32-1.59,.05-.01,.18-.15,.21-.4,.18-.24,.26-.48,.29-.71l7.31,9.31,7.31-9.31c.02,.23,.11,.48,.29,.72,.03,.25,.16,.38,.21,.4-.35,.34-.49,1.13-.33,1.59,.27-.57,.78-.98,.89-.91,.89,.53,1.7-.1,2.8-.01,.2,.52,.88,1.07,1.5,1.33,0-.86,.46-1.45,.46-1.45,0,0,1.08,1.4,1.93,1.69-.15-.74,.13-1.67,.13-1.67,0,0,.81,.8,1.66,1.22-.32-1.15,.14-1.72,.14-1.72,0,0,.67-.34,1.17-.49,.5-.14-.56-3.47,.46-4.48,.95-.94,2.22-.81,2.8-.69-.2,.82-.04,1.6,.41,2.44,1.59,2.98,6.11,5.65,6.27,6.12,.24,.72,0,2.94-.17,3.52-.22,.76-1.66,.64-1.66,.64,0,0,.07,.03,.17,.06h0c-.09-.03-.18-.06-.26-.07,0,0,.01,0,.02,0,0,0-.01,0-.02,0,.08-2.79-1.8-4.76-5.16-5.31-3.59-.59-8.17,.65-8.76,3.11-.24,1,1.01,1.21,1.43,2.97-3.37,1.37-7.65,2.15-13.69,2.16-6.04-.01-10.32-.79-13.69-2.16,.42-1.76,1.67-1.97,1.43-2.97-.59-2.46-5.18-3.7-8.76-3.11-3.36,.55-5.24,2.52-5.17,5.29,0,0-.01,0-.02,0,0,0,.02,0,.02,0-.04,0-.07,.01-.11,.02h.03s-1.44,.11-1.66-.65c-.17-.58-.41-2.8-.17-3.52Z"/><polygon class="d" points="33.6 7.9 32.33 10.07 34.72 9.32 34.55 11.78 36.36 10.12 37.27 12.39 38.18 10.12 39.98 11.78 39.83 9.32 42.21 10.07 40.94 7.9 43.43 7.53 41.3 6.2 43.43 4.86 40.94 4.49 42.21 2.32 39.83 3.07 39.98 .6 38.18 2.27 37.27 0 36.36 2.27 34.55 .6 34.72 3.07 32.33 2.32 33.6 4.49 31.1 4.86 33.24 6.2 31.1 7.53 33.6 7.9"/></g><g><polygon class="l" points="175.68 86.93 0 86.93 0 86.25 175.68 86.25 175.68 86.93 175.68 86.93"/><g><g><path class="e" d="M7.24,104.41c0,1.78-.71,3.58-3.61,3.58s-3.63-1.8-3.63-3.58v-11.84H2.13v12.2c0,1.04,.38,1.57,1.5,1.57s1.47-.53,1.47-1.57v-12.2h2.14v11.84Z"/><path class="e" d="M8.76,92.57h2.95l2.52,12.71h.04v-12.71h2v15.3h-3.07l-2.52-13.06h-.04v13.06h-1.88v-15.3Z"/><path class="e" d="M17.79,92.57h2.13v15.3h-2.13v-15.3Z"/><path class="e" d="M20.83,92.57h2.13l2.22,12.16h.04l2.22-12.16h2.14l-3.14,15.3h-2.48l-3.14-15.3Z"/><path class="e" d="M30.55,92.57h5.81v1.78h-3.67v4.79h3.46v1.78h-3.46v5.17h3.67v1.78h-5.81v-15.3Z"/><path class="e" d="M37.28,92.57h3.31c3.12,0,3.44,.83,3.44,4.17,0,2.05-.28,2.94-2.03,3.48v.04c1.45,.15,1.95,.89,1.95,2.33v3.33c0,.55,0,1.32,.12,1.95h-2.01c-.21-.38-.26-.76-.26-1.38v-3.45c0-1.45-.25-1.83-1.66-1.83h-.73v6.66h-2.14v-15.3Zm2.14,6.86h.55c1.69,0,1.93-.32,1.93-2.6s-.13-2.48-1.46-2.48h-1.02v5.08Z"/><path class="e" d="M45.35,103.44h2.14v1.25c0,1.02,.38,1.65,1.24,1.65,1.13,0,1.41-.76,1.41-1.76,0-1.29-.07-1.71-2.28-3.89-1.37-1.36-2.5-2.59-2.5-4.67,0-2.5,1.17-3.58,3.51-3.58,1.15,0,1.98,.38,2.5,.85,.37,.34,.62,.87,.62,1.95v1.44h-2.01v-1.21c0-.87-.37-1.38-1.2-1.38-.87,0-1.28,.49-1.28,1.67,0,1.04,.21,1.68,2.18,3.71,2.09,2.16,2.48,2.91,2.48,4.75,0,2.39-.94,3.77-3.48,3.77-1.96,0-3.31-.83-3.31-2.73v-1.82Z"/><path class="e" d="M53.13,92.57h2.13v15.3h-2.13v-15.3Z"/><path class="e" d="M56.12,92.57h7.26v1.78h-2.56v13.52h-2.14v-13.52h-2.56v-1.78Z"/><path class="e" d="M64.23,92.57h2.14v15.3h-2.14v-15.3Z"/></g><path class="e" d="M112.63,92.57h3.39l1.97,11.65h.04l1.97-11.65h3.3v15.3h-2v-13.78h-.04l-2.18,13.78h-2.14l-2.39-13.78h-.04v13.78h-1.88v-15.3Z"/><path class="e" d="M127.4,92.57h2.48l3.14,15.3h-2.14l-.71-3.9h-3.33l-.71,3.9h-2.13l3.4-15.3Zm-.23,9.62h2.71l-1.32-7.37h-.05l-1.34,7.37Z"/><path class="e" d="M133.78,92.57h2.14v13.52h3.59v1.78h-5.72v-15.3Z"/><path class="e" d="M143.49,92.57h2.47l3.14,15.3h-2.14l-.71-3.9h-3.33l-.7,3.9h-2.14l3.4-15.3Zm-.24,9.62h2.71l-1.32-7.37h-.04l-1.34,7.37Z"/><path class="e" d="M147.7,92.57h2.14l1.86,6.44h.04l2.13-6.44h1.88l-2.97,9.03v6.27h-2.13v-6.27l-2.95-9.03Z"/><path class="e" d="M155.65,103.44h2.14v1.25c0,1.01,.38,1.65,1.24,1.65,1.13,0,1.41-.76,1.41-1.76,0-1.29-.06-1.71-2.29-3.89-1.37-1.36-2.5-2.59-2.5-4.66,0-2.5,1.18-3.58,3.5-3.58,1.16,0,1.99,.38,2.5,.85,.37,.34,.62,.87,.62,1.95v1.44h-2v-1.21c0-.87-.37-1.38-1.2-1.38-.88,0-1.29,.49-1.29,1.67,0,1.04,.21,1.68,2.18,3.71,2.09,2.16,2.48,2.9,2.48,4.75,0,2.39-.94,3.77-3.48,3.77-1.96,0-3.31-.83-3.31-2.73v-1.82Z"/><path class="e" d="M163.52,92.57h2.14v15.3h-2.14v-15.3Z"/><path class="e" d="M170.02,92.57h2.48l3.14,15.3h-2.13l-.71-3.9h-3.33l-.71,3.9h-2.13l3.4-15.3Zm-.24,9.62h2.71l-1.33-7.37h-.04l-1.35,7.37Z"/><path class="e" d="M71.74,103.44h2.13v1.25c0,1.02,.38,1.65,1.24,1.65,1.13,0,1.41-.76,1.41-1.75,0-1.29-.06-1.72-2.28-3.9-1.37-1.36-2.5-2.59-2.5-4.67,0-2.5,1.17-3.58,3.5-3.58,1.15,0,1.99,.38,2.5,.85,.36,.34,.62,.87,.62,1.95v1.44h-2.01v-1.21c0-.87-.36-1.38-1.2-1.38s-1.28,.49-1.28,1.67c0,1.04,.21,1.68,2.18,3.71,2.1,2.16,2.48,2.91,2.48,4.75,0,2.39-.94,3.77-3.48,3.77-1.97,0-3.31-.82-3.31-2.74v-1.82Z"/><path class="e" d="M82.13,92.57h2.48l3.14,15.3h-2.13l-.71-3.9h-3.33l-.71,3.9h-2.14l3.4-15.3Zm-.24,9.62h2.71l-1.33-7.38h-.04l-1.35,7.38Z"/><path class="e" d="M88.45,92.57h2.14v15.3h-2.14v-15.3Z"/><path class="e" d="M92.15,92.57h2.95l2.53,12.71h.04v-12.71h2.01v15.3h-3.08l-2.52-13.05h-.04v13.05h-1.88v-15.3Z"/><path class="e" d="M100.71,103.44h2.14v1.25c0,1.02,.38,1.65,1.24,1.65,1.13,0,1.41-.76,1.41-1.75,0-1.29-.06-1.72-2.28-3.9-1.37-1.36-2.5-2.59-2.5-4.67,0-2.5,1.18-3.58,3.51-3.58,1.15,0,1.98,.38,2.5,.85,.36,.34,.62,.87,.62,1.95v1.44h-2.01v-1.21c0-.87-.36-1.38-1.2-1.38-.88,0-1.28,.49-1.28,1.67,0,1.04,.21,1.68,2.18,3.71,2.1,2.16,2.48,2.91,2.48,4.75,0,2.39-.94,3.77-3.48,3.77-1.96,0-3.31-.82-3.31-2.74v-1.82Z"/></g><g><g><path class="e" d="M159.57,18.53l-5.42,25.23-5.42-25.23h-16.86c3.54,1.97,5.91,5.65,5.91,9.86v8.68h-8.49v-9.52c0-1.79-1.51-3.24-3.37-3.24s-3.37,1.45-3.37,3.24v14.23h15.23v22.94c0,4.5-2.71,8.39-6.66,10.24h15.15V37.41l7.88,37.56,7.87-37.56v37.56h8.49V18.53h-10.95Z"/><path class="e" d="M122.56,53.41v11.69c0,1.79,1.51,3.7,3.37,3.7s3.37-1.45,3.37-3.23v-16.98h-15.22V28.38c0-4.21,2.38-7.88,5.91-9.86h-14.4v47.03c0,1.79-1.51,3.23-3.37,3.23s-3.37-1.45-3.37-3.23V18.53h-8.48v46.2c0,6.29,5.3,11.39,11.86,11.39s11.86-5.11,11.86-11.39v-11.32h8.49Z"/></g><g><polygon class="k" points="141.34 74.96 141.34 18.53 142.72 18.53 142.72 74.96 141.34 74.96 141.34 74.96"/><polygon class="k" points="109.13 74.96 109.13 18.53 110.51 18.53 110.51 74.96 109.13 74.96 109.13 74.96"/><polygon class="k" points="174.31 74.96 174.31 18.53 175.68 18.53 175.68 74.96 174.31 74.96 174.31 74.96"/><polygon class="k" points="85.56 74.96 85.56 18.53 86.93 18.53 86.93 74.96 85.56 74.96 85.56 74.96"/><polygon class="k" points="122.88 74.96 113.97 74.96 113.97 66.13 122.88 74.96"/></g></g><g><path class="e" d="M47.32,23.99l-3.22-4.99s-.42-.54-1.09-.68c-.35-.08-.96,.06-1.41,.01-.31-.03-1.11-.43-1.43-.39-1.14,.12-1.89,.14-2.88-.1h-.02c-.99,.24-1.73,.22-2.87,.1-.33-.04-1.12,.36-1.43,.39-.45,.05-1.07-.09-1.41-.01-.67,.14-1.09,.68-1.09,.68l-3.22,4.99,.43,33.25,9.6,12.24v.02h.02v-.02l9.6-12.24,.43-33.25Z"/><polygon class="l" points="44.18 18.57 43.67 18.89 47.02 24.07 46.59 57.13 37.27 69.01 27.95 57.13 27.52 24.07 30.95 18.79 30.45 18.47 26.92 23.9 27.36 57.24 27.36 57.34 37.27 69.96 47.18 57.34 47.62 23.9 44.18 18.57"/><path class="d" d="M47.62,58.47s-1.79-1.33-2.04,.67c0,0-.32,.17-.59,.57-.42,.96,.56,2.52,1.3,2.52s1.79-.17,1.79-.17l-.46-3.6Z"/><path class="d" d="M49.71,47.02s.65,1.17,.1,1.71c-.55,.54-.71,.57-.71,.57,0,0-.29,.58-.88,.95-.59,.38-1.68,.27-1.68,.27,0,0-.16,.34-.81,.22-.65-.11-1.06-1.52-1.06-1.52,0,0-.4,0-.73-.33-.34-.33-.45-.94-.04-1.35,.42-.41,.81-.41,.96-.88,.15-.47,0-1.26,.6-2.11,.6-.86,2.13-1.98,2.13-1.98l2.12,4.45Z"/><path class="k" d="M66.74,24.75s-.27,1.74-1.02,2.39c-.75,.64-1.52,1.67-1.52,1.67,0,0-.5-.51-.5-1.08-.46,.18-.92,1.23-.92,1.23,0,0-.64-.44-.57-.79-.13,0-.69,.55-1.09,.39,0,.86-.63,2.36-1.31,2.61,.06-.23-.64,.33-.68,.22-.48,.48-1.15,.08-1.76,.24-3.85,1.13-4.04,4.83-4.94,5.65-2.5,2.26-2.71,2.64-3.89,4.35-.16,.92-3.73,2.15-3.73,4.78,0,.36-.25,.91,1.06,1.47,.11,.46,.67,.62,1.21,.73,.32-1,1.01-.84,1.25-.71,.47-.91,1.33-.62,1.57-.04-.19-.66-.14-1.02,.02-1.28,.16-.27,2.72-3.08,3.98-3.48,1.26-.4,1.73-.59,2.59-.59-.15,1.13,.71,2.02,1.93,3.16,0,0-.08-.69,.06-1.09,.67,.49,1.33,1.12,1.78,2.03,0-.35,.04-.48,.13-.74,1.33,1.94,3.11,5.93-.18,7.38,0-1.05-.92-3.79-2.86-3.79s-4.54,.76-5.54,2.67c-.47,.89-.59,2.59-.59,4.26,.14,.82-.12,2.85-3.64,1.85,.05,.09-.52-.24-.57,.03,.39,.07,.59,.31,.68,.95-.02,.15-.55-.17-.58-.02,.35,.02,.55,.67,.38,1,.77,.61-.32,1.06,.36,1.73,.24,.06,.34,.09,.67,.32,.3,.2,.67,.44,1.1,.87,.2-.52,.42-1.11,.84-1.24,.3,.49,1.25,1.55,1.57,1.46,.27-.08,.05-.6,.22-1.21,.54,.28,.62,.6,1.33,.74,.12-.64,.16-1.01,.45-1.41,.2-.27,.99-.5,1.1-.46-1.43-6.6,3.23-5.38,3.88-4.74-.3,3.34,5.78,7,6.58,8.04,.39,.5,1.01,5.02-1.41,4.67-.12,.03-.38-.05-.46-.02-.05,.02,0,.1-.03,.13-.22,.16-.16,.38-.15,.5,.03,.29,.87,.54,.81,1.13,.95,0,.99,1.57,.99,1.57,0,0,2.33-.37,3.49-1.06,.53-.31,.34-1.19,.54-1.56,.22-.38,.82-.26,1.23-.26,0-.5-1.22-1.36-1.22-1.36l1.49,.29s-.49-1.33-1.29-1.57c.26-.26,1.33-.39,1.75,.03,.12-.73-1.3-1.18-1.3-1.18,0,0,.34-1.38,.02-1.7-.06-.06-.24-.21-.55-.4-.54-.33-1.04-.96-1.51-1.71-.6-.94-1.37-2.99,.3-5.33,.76-1.08,.59-.1,1.79-.16,1.2-.07,5.29-.59,3.53-7.81-.67-2.76-1.48-4.35-2.07-5.58-1.19-2.52-1.95-3.04-2.16-5.44-.2-2.16,.46-3.67,1.48-3.94,1.03-.27,2.77-.05,2.34-.85-.39-.75-1.29-1.1-2.38-.7-1.1,.39-3.29,1.88-3.29,3.66,0,5.58,2.34,6.32,3.59,11.17,.45,1.75,.9,4.94-.18,6.01-.51,.51-.92,.1-1.15-.12-.23-.23-1.24-2.84-2.12-4.97-.37-.89-1.31-2.23-2.11-3.63-.1-.17-.34-.61-.43-.77-.59-1.93-1.7-3.73-1.7-3.73l.2-4.75s1.41-1.44,2.99-3.01c1.58-1.57,2.79-7.26,2.46-7.58-.33-.32-.22-1.5-.22-1.5,0,0,1-.85,1-1.89-1.55,1.98-2.68,1.82-3.11,1.82,.31,.8-.03,2.02-.03,2.02Z"/><path class="k" d="M53.65,24.38s-.93,2.74-1.12,3.59c-.18,.85-.32,3.98-.32,3.98,0,0-1.12,1.02-1.82,4.16-2.54,0-2.36-2.34-2.36-3.18s.93-4.57,1.08-6.44c0,0,.01-.79,.2-1.43,.7,.45,1.22-.24,1.44-.63,.06,.14,.11,.45,.08,.56-.03,.73-.09,1.83-.18,2.46,.28,.22,.88,.29,.88,.29l.5-2.55,1.61-.8Z"/><path class="j" d="M55.61,24.71s-.02,.7,.6,.92c.61,.21,.98,.25,1.64,.31,.66,.07,2.09,.13,2.09,.13,0,0-.25-.41-.71-.51-.46-.1-.95-.25-1.31-.25-.45,0-1.13,.16-1.58-.14-.24-.15-.72-.47-.72-.47Z"/><path class="k" d="M42.87,16.79c.14-.05,.24-.14,.87-.14s1,.22,1,.52,.4,.92,.12,1.2c-.28,.28-.3,.33-.78,.33s-1.07-.38-1.07-.38c0,0,.1-1.13-.14-1.53Z"/><path class="k" d="M37.25,16.26c.45-.08,1.63-.28,1.99-.12,.37,.16,1.11,.52,.95,.96-.17,.44,.13,.61-.2,.86-.34,.25-1.54,.28-1.91,.13-.36-.15-.81-.41-.81-.41v-1.42Z"/><path class="k" d="M34.34,17.11l.35-.77s-1.17-.49-1.66-.33c-.66,.22-.83,.1-1.17,.43-.34,.33-.45,.96-.45,1.22s.38,.9,1.02,.9,1.94-.77,1.94-.77l-.02-.68Z"/><path class="h" d="M44.89,6.35c-.75,3.93-3.82,7.09-7.82,7.09s-7.23-3.2-7.23-7.15c0-.19,0-.38,.02-.56-.34,.86-.53,1.81-.53,2.79,0,4.23,3.46,7.65,7.74,7.65s9.04-3.79,7.82-9.82Z"/><polygon class="h" points="40.83 6.2 42.82 4.99 40.37 4.58 41.53 2.77 39.61 3.48 39.81 1.02 38.18 2.6 37.27 .61 37.25 .88 36.32 2.79 34.83 1.11 34.9 3.45 32.83 2.82 33.88 4.64 31.81 4.92 33.48 6.32 31.74 7.44 33.8 7.73 32.74 9.81 34.8 9.01 34.9 11.15 36.42 9.7 37.24 11.3 37.29 11.91 38.12 9.72 39.72 11.18 39.59 9.1 41.52 9.51 40.36 7.73 42.65 7.39 40.83 6.2"/><path class="f" d="M50.92,24.64s0,.42-.08,1.11c-.07,.62-.17,1.29-.21,1.69,0,.36,1.09,.17,1.09,.17l.31-2.71-1.12-.27Z"/><path class="h" d="M51.69,19.28s.64-.24,1.37-.02c1.09-9.17,4.62-14.12,10.64-12.45,0-.75-1.98-1.32-2.65-1.32-4.29,0-6.84,4.35-7.41,5.49-1.81,3.61-1.96,8.3-1.96,8.3Z"/><g><path class="k" d="M62.52,26.7s-.04,.07-.04,.07c0,0,.01-.03,.04-.07Z"/><path class="k" d="M68.95,21.16c.9-.79,.44-1.15-.44-1.14-.95,0-2.38,.39-2.38,.39l1.11-.39s-2.1-.7-2.91-.84c-1.69-.28-3.81,.25-4.29,.37-.49,.13-1.03,.86-1.03,.86,0,0-2.19,.54-2.49,.84-.3,.3-.49,.39-.35,.76,.14,.37,.71,.49,.71,.49,0,0,1.56-.39,2.61-.16,.68,.14,1.56,1.21,.62,1.66,1.2,.3,1.55,.86,1.73,2.32,.13,.11,.48-1.54,.57-1.42,.55,.75,.23,1.57,.12,1.8,.09-.16,.33-.57,.77-.85h0l.6-.25h-.01c.21-.04,.44-.06,.7-.03,.7,0,1.12-1.95,1.12-1.95,0,0,.42,.32,.36-.04-.06-1.34-.7-2.08-1.16-2.54,.58,0,1.51,.91,1.73,1.28,.71-.13,1.68-.5,2.33-1.14Zm-6.89,1.47c-.4-.03-1.21-.3-1.57-.89-.17-.28-.29-.49-.29-.49,0,0,1.03-1.16,2.72-.05,.89,.59,0,1.48-.87,1.42Z"/></g><path class="h" d="M37.27,72.16c6.39,.27,12.83-1.75,13.93-2.2,0-.79-.09-1.36-.76-2.02-.67-.66-1.25-1.4,.04-2.68,1.96-1.95,12.6-3.36,12.6,3.63,0,3.04-.22,2.46,1.22,3.89,1.43,1.42,2.16,.79,2.93,.79-1.54,1.32-2.67,2.63-3.2,3.81-5.26,.8-2.48-5.7-3.7-6.9-1.22-1.21-2.16-1.21-3.93-.49,.11,1,.71,2.62,.71,2.62,0,0-2.56,5.18-19.85,5.48-1.04-2.8,0-5.94,0-5.94Z"/><path class="k" d="M56.18,72.48c-.22,.36-1.28,1.35-3.22,1.06,.85-.22,2.28-.93,2.44-1.43-1.64,.79-2.88,.49-2.88,.49,0,0,2.23-.69,2.58-1.44-1.36,.33-2.76,.23-2.76,.23,0,0,1.99-.48,2.67-1.38-1.54,.73-2.97,.43-2.97,.43,0,0,2.32-.49,3.32-1.98,.07,1.29,.29,2.55,.82,4.01Z"/><path class="k" d="M53.73,66.22c-2.14,2.12-4.05,1.28-3.89,.74,.22-.76,1.24-1.52,3.01-1.6-1.51,.42-1.94,1.26-1.94,1.26,0,0,1.12-.72,2.34-.72-.88,.34-1.82,1.22-1.82,1.22,0,0,.99-.67,2.31-.9Z"/><path class="k" d="M62.98,68.85s.14-3.01-2.9-2.78c1.61,.39,1.73,1.35,1.73,1.35,0,0-.66-.89-2.65-.51,1.93,0,2.29,1.09,2.29,1.09,0,0-1.3-.92-3.06-.33,2.19,0,2.54,1.17,2.54,1.17,0,0-1.13-1.36-3.72-.21,4.23-.97,3.33,2.26,3.33,2.26,0,0,.22,4.43,.6,4.81,.14-2.54,1.49-3.69,1.49-3.69,0,0,.25,2.29,2.71,1.55-.67-.28-1.04-.79-1.04-.79l-.54-.53s-.5-.1-.83-.27c-.33-.16-.53-1.15-.53-1.15l-.4-.39s.25-1.15,.42-1.31c.17-.16,.56-.27,.56-.27"/><path class="k" d="M50.51,67.7l.83,2.21s2.56-1.35,3.19-1.82c.63-.46,1.39-.99,1.53-1.48,.13-.49,.53-1.19-.4-1.05-.93,.13-2.18,1.14-2.42,1.38-.25,.25-2.72,.76-2.72,.76Z"/><path class="i" d="M52.62,19.09c.32,0,.44,.17,.44,.17,.39-1.26,3.08-3.17,4.54-.01,.39-2.86-1.01-3.29-2.44-3.29,1.53-1.06,3.35-1.14,4.76,.26,0-1.58-1.7-2.53-3.76-2.12,.8-1.02,2.73-1.11,4.84,.24-1.35-1.91-2.55-2.1-3.92-2.13,2.62-.56,3.27-.48,5.42,.7-.68-1.86-3-2.41-4.39-2.16,1.62-.86,4.3-.71,5.04,.18-1.22-1.21-2.6-2.17-4.35-1.67,1.09-.77,3.65-1.09,5.35,.31-.7-1.53-3.45-2.89-5.09-1.92,2.08-1.27,5.31-.53,5.69,0-6.38-4.85-11.88,2.93-12.12,11.45Z"/><path class="h" d="M65.54,23.3c-.09,.3-.16,.61-.5,.83,.1-.26,.05-.41-.03-.53-.41,1.15-2.15,1.31-2.71,1.06,.65,.98-.01,2.6-1.39,3.01-.77-.47-3.89-.69-3.64,.7,.82-.82,1.73-.41,2.26,.39,0,0,1.16,2.18-1.53,2.69-5.33,1.02-5.08,5.31-5.08,5.31,0,0,1.46-3.4,4.78-4.66-.16,.16-.27,.41-.27,.41,.38-.12,1.04-.4,1.53-.47-.11,.26-.15,.33-.22,.45,3.51-1.17,3.74-4.45,3.74-4.45,0,0-.53-2.13,2.11-2.25,.69-.36,.94-.56,.94-2.5Z"/><path class="h" d="M61.66,57.53c-.12,0-.29,.12-.39,.21,0-.96,.31-2.23,.76-2.93-.16,0-.22,.02-.4,.04,.34-.77,.9-1.35,1.22-1.84,2.45-3.66-2.58-7.55-2.58-7.73,0,.21,0,.62,0,.62,0,0-1.62-1.8-1.79-2.45-.21,.21-.33,.82-.33,.82,0,0-1.36-1.46-1.08-2.54,.3-.71,1.59-2.01,3.27-2.09-2.42-.36-4.56,1.03-4.95,1.82-2.58,.54-4.09,2.13-5.26,3.59-1.38,1.72,.07,3.12-1.15,3.88,.05,.17,.42,.3,.87-.43-.03-.16,.03-.89-.01-1.09-.15-.77,.45-1.86,2.47-3.25,.98-.68,1.92-1.17,3.3-1.47,0,0,.51,1.48,3.27,3.41-.12-.43-.09-.47-.09-.47,0,0,1.33,.52,1.76,1.56,.02-.2-.03-.37-.06-.59,1.08,1.55,1.61,2.96,1.44,4.14-.14,.94-.8,1.48-1.67,2.51-1.71-.2-6.48-.64-5.35,6.09,.07,.87-3.5,1.32-6.38,1.76-1.2,.19-1.27,.81-2.93,.72,.17,.31-.3,.83,3.1,.41,.65,.21,.76,.85,.96,.9,.37,.08,.37-1.04,.8-1.04,.36,0,1.2,1.26,1.58,1.38,0-.38,.11-.95,.25-1.53,.39,.46,.87,.79,1.33,.94,0-.52,.16-1.08,.39-1.32,.41-.44,1.01-.32,1.15-.47,.4-.96-.5-2.82,.28-4.02,.77-1.21,1.85-1.11,3.72-1.19-.37,2.08,2.14,5.89,5.49,7.39-2.11-1.95-2.82-4.14-2.96-5.73Z"/><path class="h" d="M53.65,24.38s.1,.65-.91,2.18c-.39,.58-.3,4.01-.51,5.12-.04,.2-1.14,1.61-1.26,2.44-.05-.02-.4,.36-.46,.25,.11-.33,.11-.88,0-.95-.08,.11-.17,.2-.34,.32,0-.14,.11-.33,.11-.56-.12,.12-.16,.21-.3,.34,.08-.34,.11-.72,.11-1.07,0-1.12,1.12-6.82,1.12-6.82,0,0,.28-1.32,.97-1.32s1.46,.07,1.46,.07Z"/><path class="h" d="M69.28,55.12c.31,.13,.95,.14,1.29,.14-.12-.05-.17-.16-.21-.25,.97,.11,1.96-.52,2.11-.85-.19,.02-.29,0-.36-.04,1.76-1.48,1.03-6.41-.38-10.03,2.14,2.76,2.99,7.91,2.02,10.25-.52,1.25-.93,1.91-2.87,1.91-1.7,0-2.17-.07-2.17-.07,0,0,.15-.38,.57-1.05Z"/><path class="h" d="M68.56,62.68c1.03,2.01-.32,5.17-.43,6.81-.07,1.04-.04,1.79-.41,2.11,.58-.11,.77,.12,1.11-.37,.34-.49,.36-1.38,.54-1.56,.18-.18,.85-.17,1.23-.26,0-.49-1.22-1.36-1.22-1.36,0,0,.98-.05,1.38,.05,0-.58-1.04-1.49-1.04-1.49,0,0,.07-.1,1.56-.1-.29-.65-1.37-1.03-1.37-1.03,0,0,.27-.89,.14-1.5-.24-.38-.84-.64-1.5-1.3Z"/><path class="f" d="M59.77,23.59c-.44,.16-.71,.07-1.03,.07,1.05-.13,1.12-.98,.77-1.32,.62,.12,1.05,.52,1.05,.88s.23,.57-.7,.92c-.58,.22-2.49,.94-2.78-.42,.52,.52,2.21,.51,2.68-.13Z"/><path class="h" d="M66.65,22.3l.15,.56s.99-.11,1.63-.6c.63-.49,1.61-1.67,1.49-1.78-.11-.11-.39-.21-.51-.21-.51,1.67-2.77,2.03-2.77,2.03Z"/><path class="f" d="M48.47,49.31c-.05,.28-.69,1.09-1.63,.79-.05,0-.03,.07-.08,.05,1.63,.74,2.03-.38,2.14-.63-.18,0-.34-.11-.44-.21Z"/><path class="h" d="M58.2,8.25c-.55,.28-1.29,.99-.7,1.3,.57,.3,.7-.61,.7-1.3Z"/><path class="h" d="M56.94,8.64c-.55,.28-1.3,.99-.7,1.3,.57,.3,.7-.61,.7-1.3Z"/><path class="h" d="M56.81,10.46c-.55,.29-1.29,.99-.7,1.3,.57,.3,.7-.61,.7-1.3Z"/><path class="h" d="M55.39,11.75c-.55,.28-1.3,.99-.7,1.3,.57,.3,.7-.62,.7-1.3Z"/><path class="h" d="M54.41,15.03c-.55,.28-1.29,.99-.7,1.3,.58,.3,.7-.61,.7-1.3Z"/><path class="h" d="M55.41,13.39c-.55,.28-1.29,.99-.7,1.3,.58,.3,.7-.61,.7-1.3Z"/><path class="d" d="M26.91,58.47s1.79-1.33,2.04,.67c0,0,.32,.17,.59,.57,.42,.96-.56,2.52-1.3,2.52s-1.79-.17-1.79-.17l.46-3.6Z"/><path class="d" d="M24.82,47.02s-.65,1.17-.1,1.71c.55,.54,.72,.57,.72,.57,0,0,.29,.58,.88,.95,.59,.38,1.68,.27,1.68,.27,0,0,.16,.34,.81,.22,.66-.11,1.06-1.52,1.06-1.52,0,0,.4,0,.73-.33,.33-.33,.45-.94,.03-1.35-.42-.41-.81-.41-.96-.88-.15-.47,0-1.26-.6-2.11-.6-.86-2.13-1.98-2.13-1.98l-2.12,4.45Z"/><path class="k" d="M7.79,24.75s.27,1.74,1.02,2.39c.75,.64,1.52,1.67,1.52,1.67,0,0,.5-.51,.5-1.08,.46,.18,.92,1.23,.92,1.23,0,0,.64-.44,.57-.79,.13,0,.69,.55,1.09,.39,0,.86,.63,2.36,1.31,2.61-.06-.23,.64,.33,.68,.22,.48,.48,1.15,.08,1.75,.24,3.86,1.13,4.04,4.83,4.95,5.65,2.5,2.26,2.71,2.64,3.89,4.35,.16,.92,3.73,2.15,3.73,4.78,0,.36,.25,.91-1.07,1.47-.11,.46-.67,.62-1.21,.73-.31-1-1.01-.84-1.25-.71-.47-.92-1.33-.62-1.57-.04,.19-.66,.14-1.02-.02-1.28-.16-.27-2.72-3.08-3.98-3.48-1.26-.4-1.73-.59-2.59-.59,.15,1.13-.7,2.02-1.93,3.16,0,0,.08-.69-.07-1.09-.67,.49-1.33,1.12-1.77,2.03,0-.35-.05-.48-.13-.74-1.33,1.94-3.11,5.93,.19,7.38,0-1.05,.92-3.79,2.86-3.79s4.53,.76,5.54,2.67c.47,.89,.59,2.59,.59,4.26-.14,.82,.12,2.85,3.64,1.85-.04,.09,.52-.24,.58,.03-.4,.07-.59,.31-.68,.95,.03,.15,.55-.17,.59-.02-.36,.02-.55,.67-.38,1-.78,.61,.31,1.06-.36,1.73-.23,.06-.33,.09-.68,.32-.29,.2-.66,.44-1.09,.87-.2-.52-.43-1.11-.85-1.24-.3,.49-1.25,1.55-1.57,1.46-.26-.08-.05-.6-.22-1.21-.54,.28-.62,.6-1.33,.74-.12-.64-.15-1.01-.45-1.41-.2-.27-.99-.5-1.1-.46,1.43-6.6-3.23-5.38-3.88-4.74,.29,3.34-5.78,7-6.58,8.04-.39,.5-1.02,5.02,1.41,4.67,.12,.03,.38-.05,.46-.02,.05,.02,0,.1,.03,.13,.22,.16,.16,.38,.15,.5-.03,.29-.88,.54-.81,1.13-.95,0-1,1.57-1,1.57,0,0-2.33-.37-3.49-1.06-.53-.31-.34-1.19-.54-1.56-.22-.38-.83-.26-1.23-.26,0-.5,1.22-1.36,1.22-1.36l-1.49,.29s.49-1.33,1.29-1.57c-.26-.26-1.33-.39-1.75,.03-.12-.73,1.3-1.18,1.3-1.18,0,0-.34-1.38-.02-1.7,.06-.06,.24-.21,.55-.4,.54-.33,1.04-.96,1.51-1.71,.6-.94,1.37-2.99-.29-5.33-.77-1.08-.59-.1-1.8-.16-1.2-.07-5.28-.59-3.53-7.81,.67-2.76,1.48-4.35,2.06-5.58,1.2-2.52,1.95-3.04,2.16-5.44,.19-2.16-.46-3.67-1.48-3.94-1.03-.27-2.76-.05-2.34-.85,.39-.75,1.29-1.1,2.38-.7,1.09,.39,3.29,1.88,3.29,3.66,0,5.58-2.34,6.32-3.59,11.17-.45,1.75-.9,4.94,.17,6.01,.51,.51,.91,.1,1.15-.12,.23-.23,1.24-2.84,2.12-4.97,.37-.89,1.31-2.23,2.11-3.63,.1-.17,.34-.61,.43-.77,.59-1.93,1.69-3.73,1.69-3.73l-.2-4.75s-1.41-1.44-2.99-3.01c-1.58-1.57-2.79-7.26-2.46-7.58,.33-.32,.22-1.5,.22-1.5,0,0-.99-.85-.99-1.89,1.54,1.98,2.67,1.82,3.11,1.82-.31,.8,.03,2.02,.03,2.02Z"/><path class="k" d="M20.88,24.38s.93,2.74,1.11,3.59c.19,.85,.32,3.98,.32,3.98,0,0,1.13,1.02,1.82,4.16,2.54,0,2.36-2.34,2.36-3.18s-.93-4.57-1.08-6.44c0,0,0-.79-.2-1.43-.7,.45-1.21-.24-1.45-.63-.05,.14-.11,.45-.07,.56,.03,.73,.09,1.83,.18,2.46-.28,.22-.88,.29-.88,.29l-.51-2.55-1.6-.8Z"/><path class="j" d="M18.92,24.71s.02,.7-.6,.92c-.61,.21-.98,.25-1.64,.31-.67,.06-2.1,.13-2.1,.13,0,0,.26-.41,.72-.51,.46-.1,.95-.25,1.3-.25,.45,0,1.14,.16,1.59-.14,.23-.15,.72-.47,.72-.47Z"/><path class="f" d="M23.6,24.64s0,.42,.08,1.11c.07,.62,.17,1.29,.21,1.69,0,.36-1.1,.17-1.1,.17l-.31-2.71,1.12-.27Z"/><path class="h" d="M22.84,19.28s-.64-.24-1.37-.02c-1.09-9.17-4.62-14.12-10.64-12.45,0-.75,1.98-1.32,2.65-1.32,4.28,0,6.84,4.35,7.41,5.49,1.81,3.61,1.96,8.3,1.96,8.3Z"/><g><path class="k" d="M12.01,26.7s.03,.07,.03,.07c0,0-.01-.03-.03-.07Z"/><path class="k" d="M7.9,22.3c.22-.37,1.15-1.28,1.74-1.28-.46,.45-1.09,1.2-1.16,2.54-.06,.36,.36,.04,.36,.04,0,0,.42,1.95,1.12,1.95,.26-.03,.48-.01,.69,.04h0l.6,.25h0c.45,.29,.69,.7,.78,.85-.11-.23-.43-1.05,.12-1.8,.09-.11,.44,1.53,.57,1.42,.18-1.46,.52-2.01,1.73-2.32-.95-.46-.07-1.52,.62-1.66,1.04-.22,2.61,.16,2.61,.16,0,0,.56-.11,.7-.49,.15-.37-.04-.46-.35-.76-.3-.3-2.49-.84-2.49-.84,0,0-.54-.73-1.03-.86-.49-.13-2.6-.65-4.29-.37-.82,.14-2.91,.84-2.91,.84l1.11,.39s-1.42-.39-2.37-.39c-.88,0-1.34,.35-.44,1.14,.65,.64,1.62,1.01,2.33,1.14Zm3.7-1.1c1.69-1.11,2.71,.05,2.71,.05,0,0-.11,.21-.28,.49-.36,.58-1.17,.86-1.57,.89-.86,.06-1.76-.83-.86-1.42Z"/></g><path class="h" d="M37.26,72.16c-6.39,.27-12.83-1.75-13.93-2.2,0-.79,.09-1.36,.76-2.02,.67-.67,1.25-1.4-.04-2.68-1.97-1.95-12.61-3.36-12.61,3.63,0,3.04,.22,2.46-1.22,3.89-1.44,1.42-2.16,.79-2.94,.79,1.55,1.32,2.68,2.63,3.2,3.81,5.26,.8,2.48-5.7,3.7-6.9,1.21-1.21,2.15-1.21,3.93-.49-.11,1-.71,2.62-.71,2.62,0,0,2.57,5.18,19.86,5.48,1.05-2.8,0-5.94,0-5.94Z"/><path class="k" d="M18.36,72.48c.21,.36,1.28,1.35,3.22,1.06-.85-.22-2.28-.93-2.44-1.43,1.65,.79,2.87,.49,2.87,.49,0,0-2.22-.69-2.57-1.44,1.36,.33,2.76,.23,2.76,.23,0,0-1.99-.48-2.66-1.38,1.54,.73,2.96,.43,2.96,.43,0,0-2.32-.49-3.32-1.98-.07,1.29-.29,2.55-.82,4.01Z"/><path class="k" d="M20.79,66.22c2.14,2.12,4.05,1.28,3.89,.74-.22-.76-1.24-1.52-3.01-1.6,1.51,.42,1.94,1.26,1.94,1.26,0,0-1.12-.72-2.34-.72,.88,.34,1.83,1.22,1.83,1.22,0,0-1-.67-2.31-.9Z"/><path class="k" d="M11.54,68.85s-.15-3.01,2.9-2.78c-1.61,.39-1.73,1.35-1.73,1.35,0,0,.65-.89,2.65-.51-1.93,0-2.29,1.09-2.29,1.09,0,0,1.31-.92,3.06-.33-2.19,0-2.54,1.17-2.54,1.17,0,0,1.13-1.36,3.72-.21-4.24-.97-3.34,2.26-3.34,2.26,0,0-.21,4.43-.6,4.81-.14-2.54-1.49-3.69-1.49-3.69,0,0-.25,2.29-2.71,1.55,.67-.28,1.04-.79,1.04-.79l.54-.53s.5-.1,.83-.27c.33-.16,.53-1.15,.53-1.15l.4-.39s-.26-1.15-.42-1.31c-.16-.16-.56-.27-.56-.27"/><path class="k" d="M24.02,67.7l-.83,2.21s-2.55-1.35-3.19-1.82c-.63-.46-1.39-.99-1.53-1.48-.13-.49-.53-1.19,.4-1.05,.93,.13,2.18,1.14,2.42,1.38,.25,.25,2.72,.76,2.72,.76Z"/><path class="i" d="M21.9,19.09c-.32,0-.44,.17-.44,.17-.39-1.26-3.08-3.17-4.54-.01-.39-2.86,1.01-3.29,2.44-3.29-1.53-1.06-3.35-1.14-4.76,.26,0-1.58,1.7-2.53,3.76-2.12-.8-1.02-2.73-1.11-4.84,.24,1.35-1.91,2.55-2.1,3.92-2.13-2.62-.56-3.28-.48-5.42,.7,.68-1.86,2.99-2.41,4.39-2.16-1.62-.86-4.29-.71-5.04,.18,1.22-1.21,2.59-2.17,4.35-1.67-1.08-.77-3.65-1.09-5.35,.3,.7-1.53,3.45-2.89,5.09-1.92-2.08-1.27-5.31-.53-5.69,0,6.38-4.85,11.88,2.93,12.12,11.45Z"/><path class="h" d="M8.98,23.3c.09,.3,.16,.61,.5,.83-.1-.26-.05-.41,.02-.53,.41,1.15,2.15,1.31,2.72,1.06-.65,.98,.02,2.6,1.39,3.01,.77-.47,3.89-.69,3.64,.7-.82-.82-1.73-.41-2.26,.39,0,0-1.16,2.19,1.53,2.7,.57,.11,1.15,.19,1.6,.36,3.74,1.45,3.48,4.94,3.48,4.94,0,0-1.46-3.4-4.79-4.66,.17,.16,.27,.41,.27,.41-.38-.12-1.04-.4-1.53-.47,.11,.26,.15,.33,.22,.45-3.5-1.17-3.74-4.45-3.74-4.45,0,0,.54-2.13-2.11-2.25-.68-.36-.95-.56-.95-2.5Z"/><path class="h" d="M12.87,57.53c.12,0,.29,.12,.38,.21,0-.96-.31-2.23-.76-2.93,.17,0,.22,.02,.4,.04-.34-.77-.9-1.35-1.22-1.84-2.45-3.66,2.58-7.55,2.58-7.73,0,.21,0,.62,0,.62,0,0,1.62-1.8,1.79-2.45,.21,.21,.33,.82,.33,.82,0,0,1.36-1.46,1.08-2.54-.3-.71-1.6-2.01-3.28-2.09,2.43-.36,4.56,1.03,4.96,1.82,2.58,.54,4.09,2.13,5.26,3.58,1.39,1.72-.07,3.13,1.15,3.89-.05,.17-.42,.3-.87-.43,.03-.16-.03-.89,.01-1.09,.15-.77-.45-1.86-2.47-3.25-.98-.68-1.92-1.17-3.3-1.47,0,0-.51,1.48-3.27,3.41,.12-.43,.1-.47,.1-.47,0,0-1.32,.52-1.76,1.56-.02-.2,.03-.37,.06-.59-1.08,1.55-1.61,2.96-1.44,4.14,.14,.94,.8,1.48,1.67,2.51,1.71-.2,6.48-.64,5.35,6.09-.07,.87,3.5,1.32,6.38,1.76,1.21,.19,1.27,.81,2.93,.72-.17,.31,.3,.83-3.1,.41-.65,.21-.76,.85-.95,.9-.37,.08-.37-1.04-.81-1.04-.35,0-1.2,1.26-1.58,1.38,0-.38-.11-.95-.25-1.53-.39,.46-.87,.79-1.33,.94,0-.52-.16-1.08-.39-1.32-.41-.44-1.01-.32-1.15-.47-.4-.96,.5-2.82-.27-4.02-.78-1.21-1.85-1.11-3.73-1.19,.37,2.08-2.14,5.89-5.49,7.39,2.11-1.95,2.81-4.14,2.96-5.73Z"/><path class="h" d="M20.88,24.38s-.11,.65,.91,2.18c.38,.58,.3,4.01,.51,5.12,.04,.2,1.14,1.61,1.25,2.44,.05-.02,.4,.36,.46,.25-.1-.33-.1-.88,0-.95,.08,.11,.17,.2,.34,.32,0-.14-.11-.33-.11-.56,.13,.12,.17,.21,.3,.34-.09-.34-.11-.72-.11-1.07,0-1.12-1.12-6.82-1.12-6.82,0,0-.28-1.32-.98-1.32s-1.46,.07-1.46,.07Z"/><path class="h" d="M5.25,55.12c-.32,.13-.95,.14-1.29,.14,.11-.05,.17-.16,.2-.25-.96,.11-1.96-.52-2.11-.85,.19,.02,.29,0,.36-.04-1.76-1.48-1.03-6.41,.38-10.03-2.14,2.76-2.99,7.91-2.02,10.25,.51,1.25,.92,1.91,2.87,1.91,1.7,0,2.17-.07,2.17-.07,0,0-.16-.38-.58-1.05Z"/><path class="h" d="M5.96,62.68c-1.03,2.01,.32,5.17,.43,6.81,.07,1.04,.04,1.79,.41,2.11-.58-.11-.78,.12-1.11-.37-.34-.49-.36-1.38-.54-1.56-.18-.18-.85-.17-1.23-.26,0-.49,1.22-1.36,1.22-1.36,0,0-.98-.05-1.39,.05,0-.58,1.04-1.49,1.04-1.49,0,0-.07-.1-1.56-.1,.29-.65,1.37-1.03,1.37-1.03,0,0-.27-.89-.13-1.5,.23-.38,.83-.64,1.5-1.3Z"/><path class="h" d="M14.76,23.59c.44,.16,.71,.07,1.02,.07-1.05-.13-1.11-.98-.77-1.32-.62,.12-1.05,.52-1.05,.88s-.23,.57,.7,.92c.58,.22,2.49,.94,2.77-.42-.52,.52-2.21,.51-2.68-.13Z"/><path class="h" d="M7.88,22.3l-.16,.56s-1-.11-1.63-.6c-.63-.49-1.61-1.67-1.49-1.78,.12-.11,.4-.21,.51-.21,.52,1.67,2.77,2.03,2.77,2.03Z"/><path class="f" d="M26.06,49.31c.05,.28,.69,1.09,1.62,.79,.05,0,.03,.07,.08,.05-1.63,.74-2.03-.38-2.14-.63,.18,0,.34-.11,.44-.21Z"/><path class="h" d="M16.32,8.25c.55,.28,1.3,.99,.7,1.3-.57,.3-.7-.61-.7-1.3Z"/><path class="h" d="M17.59,8.64c.55,.28,1.3,.99,.7,1.3-.57,.3-.7-.61-.7-1.3Z"/><path class="h" d="M17.71,10.46c.55,.29,1.29,.99,.7,1.3-.57,.3-.7-.61-.7-1.3Z"/><path class="h" d="M19.14,11.75c.55,.28,1.29,.99,.7,1.3-.58,.3-.7-.62-.7-1.3Z"/><path class="h" d="M20.12,15.03c.55,.28,1.29,.99,.7,1.3-.57,.3-.7-.61-.7-1.3Z"/><path class="h" d="M19.12,13.39c.54,.29,1.29,.99,.7,1.3-.57,.3-.7-.61-.7-1.3Z"/><path class="l" d="M42.12,73.23c-.07-.05-.16-.08-.24-.08-.02-.05-.03-.11-.05-.16,.04,0,.8-.08,.85-.09,.01,.09,.28,2.63,.37,3.49,.09,.06,.17,.07,.24,.08,.02,.07,.03,.11,.05,.16-.19,.02-.68,.07-.85,.08-.04-.4-.28-2.67-.37-3.49Z"/><path class="l" d="M45.31,74.64c-.03-.18-.04-.33-.05-.47-.03,.34-.18,1.42-.2,1.56-.13,.02-.28,.04-.38,.06-.09-.18-.67-1.43-.67-1.43,0,0,.05,.22,.09,.47,0,0,.23,1.54,.25,1.7-.05,.01-.75,.11-.79,.12,0-.04,0-.11,0-.17,.07-.02,.15-.07,.21-.14-.01-.09-.36-2.44-.47-3.2-.09-.05-.15-.06-.25-.07-.01-.04-.04-.11-.06-.16,.14-.02,.84-.12,.93-.14,.1,.22,.8,1.72,.8,1.72l.26-1.87c.24-.04,.77-.11,.88-.13,0,.06,0,.11-.01,.17-.09,.03-.15,.08-.21,.14,0,.05,.46,3.1,.48,3.2,.11,.06,.18,.07,.25,.07,.02,.05,.04,.11,.06,.16-.16,.02-.64,.09-.85,.13l-.26-1.71Z"/><path class="l" d="M40.88,75.12c-.02-.19,0-.33-.02-.47-.06,.33-.3,1.39-.34,1.53-.13,0-.28,.02-.38,.02-.07-.19-.55-1.48-.55-1.48,0,0,.03,.22,.05,.47,0,0,.09,1.55,.1,1.72-.06,0-.75,.05-.8,.05,0-.04,.01-.1,.02-.16,.07-.02,.15-.06,.23-.12,0-.1-.15-2.47-.2-3.24-.08-.06-.15-.08-.24-.09-.02-.05-.03-.12-.04-.16,.13,0,.84-.05,.93-.06,.08,.23,.65,1.78,.65,1.78l.43-1.84c.25-.01,.78-.05,.89-.05,0,.06-.02,.11-.03,.16-.09,.03-.16,.06-.22,.12,0,.05,.19,3.13,.19,3.23,.1,.07,.17,.08,.23,.09,.02,.05,.03,.11,.05,.17-.17,0-.65,.04-.86,.05l-.11-1.72Z"/><path class="l" d="M35.38,75.19c0-.19,.03-.33,.04-.47-.1,.33-.45,1.35-.5,1.49-.13,0-.29-.01-.39-.02-.05-.19-.38-1.53-.38-1.53,0,0,0,.23,0,.48,0,0-.07,1.55-.08,1.72-.05,0-.75-.04-.8-.04,0-.04,.02-.1,.04-.16,.07-.02,.15-.04,.23-.1,0-.09,.11-2.47,.14-3.24-.08-.06-.14-.09-.23-.12,0-.05-.02-.12-.03-.16,.13,0,.84,.04,.93,.04,.06,.24,.46,1.84,.46,1.84l.62-1.79c.24,.01,.77,.04,.89,.04-.02,.06-.03,.11-.04,.16-.09,.02-.17,.05-.23,.1,0,.05-.14,3.13-.15,3.23,.09,.08,.16,.1,.23,.12,0,.05,.02,.11,.03,.17-.16,0-.65-.03-.86-.04l.08-1.72Z"/><path class="l" d="M31.1,73.09c-.06-.06-.14-.11-.22-.14,0-.06,0-.11-.01-.16,.04,0,.8,.1,.85,.1,0,.1-.33,2.63-.44,3.48,.08,.08,.15,.11,.22,.14,0,.07,0,.12,0,.17-.19-.02-.69-.08-.85-.1,.05-.4,.34-2.67,.43-3.48Z"/><path class="l" d="M22.58,74.67s-.63-.23-.82-.3c.03-.05,.07-.11,.09-.15,.09,0,.16,.01,.26-.02,.1-.27,.29-.79,1.13-3.04-.05-.08-.11-.13-.18-.18,0-.06,.02-.1,.03-.17,.03,.01,.65,.24,.82,.3l-.55,1.45c.17-.16,1.1-1,1.29-1.18,.09,.03,.51,.19,.65,.24-.03,.05-.06,.1-.09,.14-.08,0-.16,0-.22,.03-.38,.33-.72,.64-1.19,1.07,.04,.54,.15,1.85,.17,2.02,.03,.05,.08,.11,.16,.16,0,.05-.02,.12-.02,.17,0,0-.57-.21-.74-.27-.03-.33-.13-1.5-.17-1.92l-.6,1.63Z"/><path class="l" d="M26.84,72.02c0,.24-.04,3.51-.04,3.61,.01,.04,.11,.13,.17,.15,0,.05,0,.11,0,.17-.08-.02-.69-.17-.77-.19,0-.14,0-.99,0-.99l-.79-.19s-.38,.75-.45,.88c-.11-.03-.57-.14-.67-.16,.02-.05,.05-.11,.07-.15,.03,0,.17,0,.22-.06,.05-.1,1.58-3.09,1.64-3.21,.1,.02,.53,.13,.61,.15Zm-1.18,2.09c.15,.03,.43,.1,.55,.13,.02-.61,.02-1.23,.02-1.23,0,0-.29,.55-.57,1.09Z"/><path class="l" d="M29.47,74.64c.03-.18,.07-.32,.1-.46-.14,.31-.62,1.29-.68,1.42-.13-.02-.28-.05-.38-.07-.03-.2-.19-1.57-.19-1.57,0,0-.02,.23-.06,.47,0,0-.26,1.54-.29,1.7-.05,0-.74-.13-.79-.14,.01-.04,.03-.1,.06-.16,.07,0,.16-.02,.24-.06,.02-.1,.42-2.43,.55-3.19-.07-.08-.12-.11-.21-.15,0-.04,0-.12,0-.17,.13,.02,.83,.14,.92,.16,.03,.24,.23,1.88,.23,1.88l.84-1.7c.24,.04,.77,.13,.88,.15-.02,.06-.04,.11-.06,.16-.1,0-.17,.02-.25,.07,0,.05-.53,3.09-.55,3.19,.08,.09,.15,.12,.21,.14v.17c-.16-.03-.63-.11-.84-.15l.29-1.7Z"/><path class="l" d="M37.42,75.18v1.26h1.12c-.03,.12-.1,.41-.12,.52h-1.86c.01-.06,.02-.12,.03-.17,.09-.02,.14-.05,.23-.11v-3.23c-.05-.05-.12-.08-.23-.12,0-.04-.02-.1-.03-.16h1.91c-.03,.16-.09,.41-.11,.51h-.94v.99h.94c-.03,.14-.08,.39-.11,.51h-.83Z"/><path class="l" d="M48.42,72.15c-.08-.04-.18-.05-.25-.05-.03-.05-.05-.1-.08-.15,.04,0,.78-.21,.83-.22,.02,.09,.7,2.55,.93,3.38,.1,.05,.18,.05,.25,.05,.03,.06,.05,.1,.08,.15-.19,.05-.67,.18-.83,.23-.11-.39-.72-2.6-.93-3.39Z"/><path class="l" d="M46.35,72.64c-.08-.04-.17-.05-.25-.06-.03-.05-.05-.11-.07-.15,.13-.03,.99-.2,.99-.2,.52-.1,1.09,.02,1.3,1.05,.21,1.04-.27,1.32-.79,1.42l-.15,.03s.24,1.15,.26,1.23c-.09,.02-.71,.15-.84,.17,0-.05,0-.12,0-.16,.04-.02,.13-.06,.21-.15-.03-.14-.64-3.1-.65-3.17Zm.63,.12l.3,1.47,.15-.03c.27-.05,.43-.21,.3-.8-.11-.54-.35-.73-.61-.67l-.15,.03Z"/><path class="l" d="M51.56,73.23s-.16-.31-.27-.62c0,0-.52-1.45-.55-1.52,.05-.02,.65-.23,.76-.27,0,.06,.01,.12,.02,.17-.06,.04-.12,.08-.18,.18,0,0,.82,2.28,1.1,3.05,.11,.03,.2,.03,.26,.02,.03,.04,.06,.1,.08,.15-.09,.03-.54,.19-.75,.26-.08-.09-1.71-1.96-1.71-1.96,0,0,.14,.29,.24,.55,0,0,.58,1.62,.62,1.72-.05,.02-.6,.21-.75,.27,0-.05-.02-.11-.03-.17,.04-.02,.15-.12,.18-.18,0,0-1.08-2.99-1.1-3.05-.06-.03-.16-.04-.26-.03-.02-.04-.06-.09-.09-.14,.03,0,.8-.28,.84-.29,.11,.12,1.6,1.86,1.6,1.86Z"/><path class="l" d="M68.16,72.68c-.57,.78-2.56,.66-3.26,.1-1.08-.85-1.55-2.41-1.45-3.45,.31-3.02-1.62-5.17-5.16-5.75-3.59-.59-8.17,.65-8.76,3.11-.24,1,1.01,1.21,1.43,2.97-3.37,1.37-7.65,2.15-13.69,2.16-6.04-.01-10.32-.79-13.69-2.16,.42-1.76,1.67-1.97,1.43-2.97-.59-2.46-5.18-3.7-8.76-3.11-3.54,.58-5.47,2.73-5.16,5.75,.11,1.04-.37,2.61-1.45,3.45-.71,.56-2.69,.68-3.26-.1-.19,.19,.07,.76,.62,1.04,.92,.48,2.82,2.75,3.23,3.79,3.9,.98,3.69-2.38,3.69-3.64,0-2.21,.33-3.47,1.05-3.95,.57-.38,1.47-.33,2.81,.17-.13,.81-.33,1.62-.64,2.32l-.05,.1,.03,.1c2.1,3.08,9.87,5.67,20.16,5.67h0c10.29,0,18.06-2.59,20.16-5.67l.03-.1-.05-.1c-.32-.69-.52-1.51-.65-2.32,1.35-.5,2.25-.55,2.82-.17,.71,.48,1.05,1.74,1.05,3.95,0,1.26-.22,4.61,3.68,3.64,.41-1.03,2.3-3.3,3.23-3.79,.55-.29,.81-.86,.62-1.04Zm-17.43-4.78c.97,.05,2.33-.43,3.36-1.45,.54-.53,1.21-.82,1.62-.69,.26,.08,.31,.25,.27,.39-.06,.28-.46,1.07-2.81,2.43-.55,.32-1.14,.61-1.75,.88-.15-.64-.42-1.17-.69-1.56Zm-27.62,1.56c-.61-.27-1.19-.56-1.74-.88-2.35-1.36-2.75-2.15-2.81-2.43-.04-.14,0-.31,.27-.39,.41-.13,1.09,.16,1.62,.69,1.03,1.02,2.39,1.5,3.36,1.45-.27,.39-.54,.92-.7,1.56Zm-8.49-.02c-.9,.61-1.31,1.98-1.31,4.44,0,1.5-.21,2.34-.71,2.77-.39,.34-1.02,.47-1.91,.38-.34-.78-1.38-2.1-2.51-3.12,.66,0,1.28-.23,1.83-.66,1.25-.98,1.79-2.78,1.67-3.98-.4-3.85,3.13-4.86,4.66-5.11,3.01-.49,6.29,.32,7.56,1.73,.78,.87,.52,1.22,.37,1.3-.57,.31-2.22,0-3.4-1.17-.76-.75-1.77-.93-2.35-.73-.33,.12-.53,.37-.57,.69,0,.07,0,.14,0,.22,.02,.46,.07,1.82-.11,3.29-1.48-.53-2.51-.55-3.23-.06Zm42.19,3.1c-2.47,2.91-10.11,5.17-19.54,5.17s-17.07-2.26-19.55-5.17c.72-1.67,.86-3.89,.86-5.26,.52,.55,1.35,1.16,2.48,1.82,3.73,2.17,9.14,3.33,16.21,3.33h0c7.07,0,12.47-1.16,16.21-3.33,1.13-.66,1.96-1.27,2.48-1.82,0,1.38,.14,3.59,.86,5.26Zm7.04,4.49c-.89,.09-1.51-.04-1.91-.38-.5-.43-.71-1.26-.71-2.77,0-2.46-.4-3.83-1.31-4.44-.73-.49-1.76-.47-3.23,.06-.17-1.47-.13-2.83-.11-3.29,0-.08,.02-.14,0-.22-.03-.31-.24-.56-.57-.69-.58-.2-1.6-.02-2.35,.73-1.19,1.17-2.83,1.48-3.4,1.17-.15-.08-.41-.43,.37-1.3,1.27-1.42,4.55-2.22,7.56-1.73,1.54,.25,5.06,1.25,4.67,5.11-.12,1.2,.42,3,1.67,3.98,.55,.44,1.17,.66,1.83,.66-1.13,1.02-2.17,2.34-2.51,3.12Z"/><path class="d" d="M65.02,70.73c-.05-.27-.04-.66-.54-.66,.17-.27,0-.66-.37-.68-.12-.57-.98-.53-.98-.53,0,0-.84-.03-.7,.68-.11,.14-.19,.3-.22,.44-.07,.43,.07,.7,.25,1.06,.16,.34,.35,.8,.49,.87,.45,.21,.85,.21,.85,.21,0,0,.1,.46,.65,.46s.79-.27,.79-.27c0,0,.99-1.6-.21-1.6Z"/><g><path class="l" d="M59.77,54.04c.58-1.11,1.22-1.51,1.56-2.67,.79-2.67-2.45-4.03-4.76-5.66h0c.79,0,1.97-1.91,4.09-2.22-2.55,0-3.72,1.15-4.91,1.59-.54-.47-.97-.97-1.19-1.54,.43-.3,1.67-.61,2.07-.61,.21-.87,1.09-2.26,2.71-3.12-1.77,.36-2.92,1.28-3.53,2.25-3.15,.43-5.66,3.59-5.93,4.58,.96-1.21,2.64-2.39,3.7-2.77,1.27,2.33,4.46,3.41,6.39,5.09-1.59-.15-6.02,.11-7.65,2.44,.13-.13,.27-.24,.43-.35,1.03,1.07,1.95,3.79,3.32,3.79-1.23-1.22-.59-2.79-1.7-4.54,.39-.12,.78-.21,1.16-.28h0c.44,.66,.33,2.97,1.74,3.87-.41-1.03-.34-2.79-.49-3.76,1.19,2.44,2.77,2.85,2.97,3.88Z"/><path class="l" d="M65.39,64.74c.24,.72,0,2.94-.17,3.52-.22,.76-1.66,.64-1.66,.64,0,0,1.2,.51,1.59,.12,0,.44-.86,.39-.86,.39,0,0,.67,.48,1.26,.11-.13,.44-.53,.51-.53,.51,0,0,.56,.18,1.06-.31,.34,.34-.58,.99-.58,.99,0,0,1.38-.2,1.59-.8,.07-.2,.4-1.21,.15-2.76-.15,.92-.37,1.52-.7,1.99,0-.65,.1-1.67-.03-2.29-.21,.86-.5,1.57-.77,1.95,.25-1.5,.38-2.84,.38-3.8,.28,.13,.47,.2,.77,.48-.09-1.31-9.53-6.23-7.27-11.08-.29,.37-.5,.72-.66,1.06-.55-.06-2.48-.22-3.39,.69-1.66,1.65-.4,4.3-.78,4.68-.07,.07-.97,.23-1.09,.35-.12,.11-.24,.54-.24,1.28-.76-.47-.86-.99-1.13-.99s-.5,.81-.5,1.43c-.75-.32-1.05-1.55-1.38-1.55s-.89,1.43-.89,1.43c0,0-.62-.6-.77-1.01-.2,0-.95,.04-1.37,.12-.98,.18-1.48,.03-1.75-.34-.59-.59,.08-1.08,.26-1.26,.7-.5,1.33-.37,1.67-.03,0-.07,.43,.15,1.66-.25-.6,.1-1.69-.06-1.71-.1-.19-.5-.93-.56-1.39-.28-.72,.44-.88,.68-1.12,1.01-.33-1.25,1.9-1.94,2.39-1.25,.55,.27,1.13,.17,2.22-.03-1,0-1.83-.15-2.06-.37-.5-.49-1.64-.32-1.93-.03,.94-1.35,1.89-.44,2.26-.16,1.22,.35,2.36-.13,3.1-.32,.43-.11,.68-.45,.67-.83-.01-1.12-.12-3.42,.12-4.97,.05-.35,.15-.78,.24-.93-.87,.75-1.06,4.42-1.06,5.56,0,.23-.19,.48-.43,.62-.87,.53-1.93,.52-2.45,.41-.89-.89-2.81-.77-2.81,.89-.28,.17-.59,.57-.69,.94h0c-.1,.37-.04,.77,.26,1.16,.03,.25,.16,.38,.21,.4-.35,.34-.49,1.13-.33,1.59,.27-.57,.78-.98,.89-.91,.89,.53,1.7-.1,2.8-.01,.2,.52,.88,1.07,1.5,1.33,0-.86,.46-1.45,.46-1.45,0,0,1.08,1.4,1.93,1.69-.15-.74,.13-1.67,.13-1.67,0,0,.81,.8,1.66,1.22-.32-1.15,.14-1.72,.14-1.72,0,0,.67-.34,1.17-.49,.5-.14-.56-3.47,.46-4.48,.95-.94,2.22-.81,2.8-.69-.2,.82-.04,1.6,.41,2.44,1.59,2.98,6.11,5.65,6.27,6.12Z"/><path class="l" d="M69.68,20.68s-.45,1.66-2.94,2.05c.26,.63,.99,.58,1.52,.48,.08-.05,.15-.09,.23-.14,.36,2.12,.12,3.97-.4,5.52-1.9,.11-2.19,1.46-4.94,1.05,2.65,1.31,3.14-.08,4.52,.01-.4,.86-.88,1.61-1.36,2.22-2.6-.15-3.96-2.12-6.32-2.12,2.47,.76,1.97,2.75,5.12,3.39,.03-.03,.06-.06,.1-.09-.69,.65-1.05,.92-1.42,1.38-.36-.95-1.02-1.79-2.14-2.32,.6,.69,.99,1.46,1.23,2.23-1.38-.99-2.55-3.26-4.19-2.66,1.52,.22,2.67,3.26,4.48,4.01,.06,.53,.07,1.04,.05,1.51-1.7-.96-2.93-3.05-5.33-2.82,2.2,.58,3.12,3.14,5.2,4.08-.04,.22-.08,.42-.11,.59-2.18-.07-3.42-1.72-5.58,.43,2-1,3.82,.47,5.43,.3,.07,.09,.27,.34,.57,.75-2.08,.3-3.29,2.19-5.5,2.04,2.23,.91,4.58-.96,6.25-.96,.21,.32,.45,.69,.7,1.09-1.52,.64-3.21,2.11-6.33,2.59,3.29,.74,5.33-1.09,6.82-1.59-.18-.35-.3-.69-.4-1.05h0c-.39-1.35-.65-1.84-1.14-2.95,.23-.9,.51-2.4,.34-3.87,.16-.97,.86-1.42,1.95-2.5,1.83-1.81,3.91-5.17,2.86-10.61h0c1.28-1.03,1.59-2.41,1.59-2.41,0,0-.88-.5-2.16-.31,1.4,.17,1.29,.65,1.29,.65Z"/><path class="l" d="M59.92,23.52c-1.7,.13-1.8-.02-2.43-.02,.85,.84,2.43,.02,2.43,.02Z"/><path class="l" d="M57.24,22.78c.78,.78,1.62,.27,1.99,.1,0,0-1.44,.03-1.99-.1Z"/><path class="l" d="M61.18,19.3c2.93-.37,4.9,.62,5.35,.88-.15,.07-.29,.15-.37,.23,.67-.17,1.2-.24,1.45-.27l.17-.02s-.17-.12-.46-.28c.11-.38,.34-1.26,.14-1.45-.65,.37-1.12,.67-1.42,.88-1.24-.43-3-.73-4.87,.03Z"/><path class="l" d="M60.56,19.42c-.88,.19-1.32,.48-1.46,.77-.53,.11-1.51,.36-1.91,.76,.93-.18,1.58-.27,1.89-.3,.13,.29,.49,.53,.91,.6,.53,.95,1.82,1.35,3.03,.23,.01,0,.02,0,.02,0,.72,.45,.4,1.33-1.49,1.74,3.68,.18,2.69-1.75,1.93-2.14,.37-.79-.22-1.97-2.49-1.09,1.67-.19,1.77,.52,1.73,.86-.8-.43-1.59-.78-2.38,0-.56,.55-1.57-.85,.22-1.44Zm.34,1.65c-.03,.06-.05,.12-.05,.19,0,.23,.14,.4,.32,.4s.32-.18,.32-.4c0-.18-.1-.33-.22-.38,.29-.1,.64-.06,1.25,.49-1.32,.67-1.99,.47-2.14-.14,.2,0,.37-.08,.52-.16Z"/><path class="l" d="M60.55,23.7c.17,0,.34,.02,.54,.1,0-.81-.55-1.7-2.42-1.53,1.39,.1,1.88,.69,1.88,1.43Z"/><path class="l" d="M46.18,50.93c.11-.02,.17-.11,.23-.21,.18,.1,.39,.15,.6,.12,.13-.01,.25-.04,.37-.06,.09,.2,.31,.55,.79,.63-.19-.17-.25-.56-.28-.77,.34-.13,.61-.34,.83-.71-1.37,.85-2.66,.08-1.63-.95,.23-.64,.35-1.45,.17-2.01-.22,.73-.36,1.31-.69,1.83-.79,.69-.74,1.36-.39,1.74-.72-.16-1.58-1.21-.49-2.15,.33-.33,.6-1.04,.4-1.96-.17,1.29-1.14,1.79-1.57,2.46-.01,.02-.02,.05-.03,.07-1.29-.85-.02-1.52,.27-1.99,.48-.99,.25-1.83,1.79-3.12,.53-.44,1.14-1.04,1.78-1.71,.38,.3,1.4,1.03,2.73,1.32-.99-.34-1.72-1.63-1.97-2.11,.39-.42,.79-.85,1.16-1.27,.18,.49,.72,1.35,2.3,1.54-1.08-.55-1.56-1.95-1.65-2.27,.28-.32,.55-.63,.79-.9,.4,.47,1.59,1.75,2.72,1.62-1.42-.95-1.8-2.02-2.11-2.33,.35-.39,.59-.67,.68-.76,.41-1.77,1.72-4.58,4.68-5.44-4.35,.33-5.28,4.99-5.28,4.99,0,0-.33,.41-.84,1.02-.34-.8,0-2.33,.39-3.2-.36,0,0,0-.65-.02,.28-.88,1.12-1.83,1.94-2.76-.45,.1-.67-.01-.67-.01,0,0,.1-3.74,.45-4.65,.51-1.32,.95-2.33,1.37-2.75,.44-.43,.51-.89,.51-1.28,0-.68-.61-.81-.61-.81,0,0,.03-.29,.03-.97,.39-.88-.32-1.67-1.07-1.86,.87-2.53,3.98-1.96,4.42,.83,1.3-3.36-.79-4.14-1.57-4.14,.55-.27,3.05-.75,4.13,.98,.17-2.92-2.28-3.02-2.93-3.07,.28-.11,.59-.17,.93-.17,.8,0,2.37,.15,3.43,1.24-.7-1.68-2.16-2.5-3.32-2.67,.21-.03,.43-.05,.66-.05,1.05,0,2.89,.31,4.06,1.34-.47-1.85-2.07-2.71-3.36-2.9,.97-.14,2.87-.25,3.92,.82-.6-1.35-1.96-2.16-2.98-2.4,.29-.06,2.12-.53,3.76,.75-.55-1.52-2.17-2.5-3.64-2.62,2.2-.33,3.5,.18,4.82,1.2-4.34-7.17-13.41-1.86-14.18,10.84-.32,.21-.38,.62-.38,.76-1.81,.2-1.75,1.58-1.61,1.87-1.37,.89-.48,2.96-.48,2.96l.11,2.48s.43-1.65,.43-2.55-.66-1.66,.51-2.82c-.17-.66,.04-1.72,1.52-1.39,.07-.12-.07-.74,.34-1.1,.29-.19,.77-.22,1.15-.14,.69,.25,1.1,1.18,.78,1.66,.25,.36,.17,.71,.17,.71-.19-.2-.28-.34-.47-.41-.6,.25-1.34-.15-1.34-.15,0,0,.71,.6,.44,1.25,.16,.17,.21,.35,.21,.69-.25-.25-.39-.37-.64-.45-.37,.12-.73,.1-.93-.03,.51,.5,.54,.86,.43,1.09,.08,.22,.26,.16,.26,.54q-.26-.17-.5-.19c-.3,.3-.49,.25-.76,.25,.03,.07,.07,.14,.12,.2l-.04,2.58,.37-2.29c.2,.17,.42,.39,.59,.81l-.21,1.92s-.53,.23-.83-.07c.07,.83,1.18,.4,1.18,.4l.2-2.22c.52-.2,.84-.4,1.15-.82,.09,.68-.29,1.06-.47,1.32-.19,.38-.33,.91-.43,1.5-.89,1.69-2.63,1.71-2.96,3.05,1.15-1.14,2-.67,2.75-1.55-.03,.22-.05,.44-.08,.65-1.17,.94-1.64,2.83-2.98,3.71,1.51-.31,2.11-1.53,2.75-2.17-.01,.05-.02,.11-.04,.16-.64,2.35-1.43,2.9-1.77,4.1-.69,0-1.29-.22-1.54-1.4-.2-.96,.36-3.93,.52-6.01-.65,1.33-1.75,6.86-1.12,7.49,.28,.27,2.12,2.12,2.99,2.87-1.58,1.89-3.86,4.51-4.56,4.87-1.12,.57-1.54,3.08-1.9,3.39-1.18,.64-1.45,2.07,.08,2.69,.03,.84,1.02,1.66,1.8,1.5Zm5.69-31.86c.29-4.27,1.47-7.83,3.31-10.18,2.44-3.12,6.03-4.54,8.37-2.22-.59-.29-3.71-.4-5.15,1.34,1.67-.89,3.79-.46,4.37,.5-.38-.1-3.08-.72-4.51,1,0,0,2.38-.94,3.41,.66-.48-.13-2.92-.48-4.19,.78,1.57-.45,3.04-.13,4.24,1.21-.92-.37-3.74-1.27-5.22,.19,0,0,2.3-.35,3.05,.93-2.2-.56-3.48,.39-3.93,1.16,1.53-.78,3.24-.27,3.7,.9-.5-.28-1.04-.43-1.61-.43-.84,0-2.73,.31-3.41,1.47,1.18-.75,3.05-.4,3.15,1.94-1.42-2.22-3.85-1.08-4.47,.25-.05,.11-.09,.22-.11,.33-.03,0,.45-6.66,3.46-10.49-3.33,2.98-4.08,10.59-4.08,10.59-.13,.01-.25,.04-.38,.05Z"/><path class="l" d="M48.72,49.61c.19,.03,.41,0,.6-.1,.1,.14,.33,.35,.8,.27-.22-.1-.34-.37-.4-.54,.38-.39,.56-1.04,.07-1.82,.19,.88-.45,1.71-.88,1.51-.41-.18-.19-1.25-.79-1.69,.39,.93-.66,1.92,.59,2.38Z"/><path class="l" d="M65.51,23.25c.02,1.17-.5,2.02-1.14,2.25-1.1,0-1.89,.6-1.89,1.67,.33-.86,1.1-1.38,2.06-1.09,.51-.34,1.23-.93,1.23-2.04,.22,.17,.39,.33,.39,.77,.7-1.42-.07-2.95-1.27-3.84,.33,.73,1.08,1.4,.96,2.42-.12-.12-.19-.16-.35-.16Z"/><path class="l" d="M66.84,21.55c.8,0,1.34-.29,1.89-.84-1.77-.15-2.44,.2-2.44,.2,0,0-.25,.64,.55,.64Z"/><path class="l" d="M71.75,66.96c-.29-.88-.92-1.27-1.41-1.43,.05-.73-.03-1.34-.36-1.67,0,.55-.09,1-.22,1.56-.13,.47,.77,.31,1.28,1.01-.55-.18-1.23-.16-1.41-.1-.25,.07-.36,.5-.05,.64,.2,.09,.71,.38,.9,.97-.45-.22-.95-.23-1.13-.23s-.37,.33-.14,.55c.23,.23,.78,.66,1.02,1.01-1.34-.12-1.4,.12-1.42,.3-.03,.29-.08,.69-.05,.97,.08,.81-1.48,1.05-2.06,1.16-.59,.1-.93,.28-1.36,.42-.37,.36-1.45,.25-1.37-.3,.16-1.01,.62-1.09,1.04-1.09-.67-.4-1.32,.05-1.53,1.02-1.26,0-.56-1.8,.41-1.69-.7-.27-1.15,.21-1.29,.35-.27-.04-.52-.73,.58-1.05-.4-.11-.59,0-.71,.05,0-.17,.15-.36,.49-.49,.14-.05,.29-.06,.51-.03-.23-.09-.44-.05-.49-.05-.39-.03-.81,.19-.81,.66-.33,.54-.29,1.23-.29,1.23,0,0-.27,.33-.27,1.01,.35-.66,.79-.66,.79-.66,0,0-.23,.6,.22,1.05-.13,.22-.28,.71,.2,1.19,0-.64,.18-.94,.18-.94,0,0,.36,.06,.68-.01,0,.19,.21,.38,.32,.38,.1,.24,.19,.63,.67,.99-.18-.18-.13-.73-.04-.82,.87,0,1.35-.55,2.19-.69,1.25-.2,2.61-.77,2.61-1.11s.04-.88,.11-1.31c.35-.17,.83-.19,1.65-.03-.39-.82-1.08-1.35-1.41-1.54,.41-.06,1.13,.17,1.43,.37-.09-.67-.7-1.58-1.1-1.82,.38-.04,1-.13,1.64,.17Z"/><path class="l" d="M72.85,45.35c-1.77-3.77-4.25-8.18-2.79-10.75,.93-1.65,2.92-.52,3.45-1.57,.42-.85-3.36-2.85-5.6,1.18-1.09,1.95-.62,4.58,.49,6.33-.16-.44-.3-1-.4-1.61,.01,.01,.02,.03,.04,.05,.7-.45,1.44-.12,1.44-.12v-.06c.22,.75,.52,1.56,.88,2.39-.25,0-.82,.04-1.14,.58,.65-.11,1.33,.36,1.66,.63,.57,1.3,1.2,2.65,1.72,3.99-.34-.11-.83-.16-1.41,.1-.57-1.73-1.43-3.64-2.59-5.5,3.39,7.07,3,10.79,2.33,11.45-.49,.49-1.02,.37-1.32-.61-.29-.99-1.5-4.8-4.06-7.71,.37,.71,.7,1.37,.99,1.98-.65,.03-4.1,.26-5.3,1.97,1.48-1.08,4.79-.93,5.83-.84,.23,.52,.44,1,.63,1.44-1.39-.03-3.43-.47-5.47,1.56,2.38-1.43,4.62-.14,5.84-.28,.05,0,.09-.01,.13-.02,.34,.91,.55,1.59,.69,2.09-.04-.04-.07-.08-.12-.12-1.52,.24-4.86-1.05-6.9-.06,3.18,0,5.21,1.73,7.49,1.44,1.27,1.08,2.2-.14,2.55-1.34,.88-.15,1.52,.25,1.88,.58-.02,.17-.05,.34-.09,.51-.25,1.16-.71,2.03-1.5,2.52-.07-.36-.28-1.18-.94-1.83,0,.79-.31,1.79-.51,2.26-.43,.03-.92,0-1.47-.09,0-.18,.07-.72-.01-1-.3,.31-.56,.62-.79,.91-2.3-2.02-5.64-1.26-7.26-2.27,1.31,2.16,5.29,2.08,6.35,3.62-.2,.35-.35,.68-.46,1-.96-1.17-5.18-1.29-5.64-2.93-.16,2.31,4.21,3,5.37,4.2-.02,.31,0,.61,.04,.88-.74,.14-2.47,.22-4.23-1.35,1.41,2.32,3.97,2.59,4.72,2.61,.61,.99,1.56,1.54,1.89,1.7-1.38-1.36-2.55-4-.27-6.78,6.92,1.45,5.88-6.89,3.89-11.13Zm-.34-12.22c-.22,.03-.41,.03-.62,.04-.02-.25-.07-.73-.3-.95,.47,0,.87,.13,1.15,.33,.35,.25,.24,.53-.23,.59Zm-4.67,4.37c-.05-1.04,.04-2.11,.39-2.96h0s.5-.17,1.2,.03c.03-.26,.23-.76-.54-1.08,.54-.62,1.17-.98,1.77-1.16,.33,.33,.31,.76,.27,1.03-.06,.02-.12,.05-.19,.08-.99,.45-1.34,1.69-1.44,1.95-.23,.6-.26,1.29-.14,2.07-.28-.13-.81-.28-1.32,.04Zm4.2,12.97c-.05-.74-.2-1.6-.43-2.53,0,.01,0,.03,.02,.04,.5-.25,1.16-.09,1.55,.06,.29,.93,.51,1.85,.61,2.74-.26-.19-.84-.49-1.74-.3Z"/><path class="l" d="M59.53,29.03c.06-.06,.24-.38,.13-.63,.56,0,.88,.08,1.38,.57,.38-.08,.88-.19,1.14-.45,.14,.46,.37,.75,.68,.91,.22-.61,.54-.79,.8-1,.13,.42,.35,.58,.73,.75,0-1.58,2.91-1.5,2.46-5.12-.4,3.1-2.37,3.27-2.68,4.23-.23-.23-.36-.88-.36-.88-.55,.31-.91,.89-1.04,1.19-.24-.24-.35-.58-.35-1.08-.46,.45-.81,.79-1.34,.79-1.3-.77-3.05-.94-3.8-.2-.12-.13-.5-.81-.07-1.24-.06-.17-.03-.54,.15-.9,0,.51,.34,.92,.74,1.05,.45,.14,.98-.22,1.75-.08,.52,.1,1.36,.35,1.79,.03,1.2-.89,1.3-2.97-.23-3.08,.61,.38,.85,1.29,.38,2.28,.45-1.4-.97-2.12-1.57-2.22-1.46,.28-3.23,.95-3.33-1.47,.43-.06,.95-.46,.95-.83-.37,.17-.77,.33-1.22,.33-.55-.36-.34-.57,.13-.86-1.25,.26-1.13,.61-.49,1.24,.26,2.04,.73,2.5,1.95,2.5,.86,0,1.64-.6,2.46-.17,.41,.41,.69,1.18,.38,1.75,0,.01-.02,.03-.02,.04-.3-.44-1.31-1.58-3.69-1.14,1.24,0,1.8,.11,2.05,.54-.76-.33-3.41,.23-3.7-1.03,.38,.2,.49,.49,1.26,.49-.6,0-1.26-.71-1.37-1.31-.02-.08-.06-.07-.09-.02-.65,1.5,.6,2.07,1.53,2.14-.12,.2-.18,.43-.18,.66-.77,.52,.3,2.16,.52,2.16,0-.83,.77-1.12,1.09-.91,.25,.17,.38,.53,.1,.81-.39,.39-2.31,.3-3.24,.5,.12,.12,.28,.24,.28,.4-.73,.24-1.47,.46-2.06,1.52,.82-.68,1.93-1.11,2.69-1.32,.02-.1-.01-.24-.1-.33,1.11-.12,2.55,.21,3.39-.64Zm-1.81-2.81c.54,.02,1.08,.01,1.45,.14-.17,.05-.36,.13-.56,.24-.27,.16-.8-.02-.89-.39Z"/></g><path class="d" d="M9.52,70.73c.05-.28,.04-.67,.54-.67-.16-.27,0-.66,.37-.67,0-.31,.43-.5,.72-.52,.22-.02,.3,0,.42,.05,.12,.05,.69-.08,.54,.63,.11,.14,.19,.3,.21,.44,.06,.38-.05,.72-.38,.81,.1,.51-.2,1.04-.36,1.12-.45,.21-.85,.21-.85,.21,0,0-.1,.46-.65,.46s-.78-.26-.78-.26c0,0-.99-1.59,.21-1.59Z"/><g><path class="l" d="M18.73,42.07c-.6-.98-1.76-1.89-3.53-2.26,1.62,.85,2.49,2.25,2.71,3.12,.4,0,1.64,.31,2.07,.6-.22,.57-.64,1.07-1.19,1.55-1.19-.44-2.36-1.59-4.91-1.59,2.12,.31,3.3,2.22,4.09,2.22h0c-2.31,1.63-5.55,2.99-4.76,5.66,.34,1.16,.98,1.56,1.56,2.67,.2-1.03,1.79-1.44,2.98-3.88-.16,.97-.09,2.73-.5,3.76,1.41-.9,1.31-3.21,1.74-3.87h0c.38,.06,.77,.16,1.16,.28-1.11,1.75-.46,3.31-1.7,4.53,1.38,0,2.29-2.71,3.32-3.79,.16,.11,.31,.22,.43,.35-1.63-2.32-6.06-2.59-7.65-2.43,1.94-1.68,5.12-2.76,6.39-5.09,1.05,.39,2.73,1.56,3.7,2.77-.27-.99-2.78-4.16-5.93-4.58Z"/><path class="l" d="M30.23,46.74c-.36-.31-.78-2.83-1.91-3.39-.71-.35-2.98-2.97-4.56-4.86,.87-.75,2.71-2.6,2.99-2.88,.63-.62-.47-6.15-1.12-7.49,.16,2.08,.72,5.06,.52,6.01-.24,1.18-.85,1.4-1.54,1.4-.34-1.2-1.14-1.75-1.77-4.1-.02-.05-.03-.1-.04-.16,.63,.65,1.24,1.86,2.74,2.16-1.34-.87-1.81-2.77-2.98-3.7-.03-.21-.05-.43-.08-.65,.75,.89,1.6,.41,2.75,1.55-.32-1.34-2.07-1.36-2.96-3.05-.11-.59-.24-1.12-.43-1.5-.17-.26-.56-.64-.47-1.32,.31,.41,.63,.61,1.15,.82l.2,2.22s1.12,.43,1.18-.4c-.3,.3-.83,.07-.83,.07l-.21-1.92c.17-.42,.39-.65,.59-.81l.37,2.29-.03-2.58c.05-.06,.1-.12,.12-.2-.27,0-.45,.04-.75-.25q-.25,.02-.51,.19c0-.37,.18-.32,.26-.54-.11-.23-.08-.58,.43-1.09-.2,.13-.56,.16-.94,.03-.25,.08-.39,.2-.64,.45,0-.35,.05-.53,.21-.69-.28-.66,.43-1.25,.43-1.25,0,0-.73,.4-1.33,.15-.19,.07-.29,.21-.48,.41,0,0-.09-.35,.17-.71-.31-.48,.09-1.4,.78-1.66,.39-.08,.87-.06,1.16,.14,.41,.36,.28,.97,.34,1.09,1.48-.33,1.7,.73,1.52,1.39,1.17,1.16,.5,1.92,.5,2.82s.43,2.55,.43,2.55l.11-2.48s.89-2.07-.48-2.96c.13-.29,.19-1.67-1.62-1.87,0-.13-.05-.54-.38-.75C22.38,6.51,13.31,1.2,8.96,8.37c1.33-1.02,2.62-1.52,4.82-1.2-1.47,.11-3.09,1.1-3.64,2.61,1.64-1.29,3.48-.81,3.76-.75-1.02,.23-2.38,1.05-2.98,2.4,1.05-1.07,2.94-.96,3.92-.82-1.3,.19-2.89,1.05-3.36,2.9,1.17-1.03,3-1.34,4.06-1.34,.23,0,.45,.02,.66,.04-1.16,.17-2.61,.99-3.31,2.68,1.06-1.09,2.63-1.24,3.43-1.24,.34,0,.65,.05,.93,.17-.65,.05-3.1,.15-2.93,3.07,1.07-1.73,3.58-1.25,4.13-.97-.77,0-2.87,.78-1.57,4.13,.44-2.79,3.55-3.36,4.42-.83-.75,.19-1.46,.98-1.07,1.86,0,.68,.03,.97,.03,.97,0,0-.61,.12-.61,.81,0,.39,.07,.84,.51,1.28,.42,.42,.85,1.43,1.37,2.75,.35,.92,.46,4.65,.46,4.65,0,0-.23,.11-.68,.01,.82,.94,1.66,1.88,1.94,2.76-.65,.03-.29,.03-.65,.03,.39,.87,.74,2.4,.39,3.2-.51-.61-.83-1.02-.83-1.02,0,0-.93-4.66-5.28-4.99,2.96,.85,4.27,3.67,4.68,5.44,.09,.09,.33,.37,.68,.76-.31,.31-.69,1.38-2.11,2.33,1.14,.14,2.33-1.14,2.73-1.62,.24,.28,.51,.58,.79,.9-.1,.33-.57,1.72-1.65,2.27,1.58-.19,2.12-1.05,2.3-1.54,.38,.42,.77,.85,1.16,1.27-.25,.49-.98,1.77-1.97,2.11,1.33-.29,2.35-1.01,2.73-1.32,.64,.66,1.27,1.26,1.8,1.7,1.54,1.3,1.3,2.14,1.79,3.12,.28,.48,1.55,1.14,.27,1.99-.02-.02-.02-.05-.03-.07-.44-.68-1.4-1.18-1.58-2.46-.19,.91,.07,1.62,.4,1.95,1.09,.94,.23,1.99-.49,2.15,.35-.37,.4-1.04-.39-1.74-.33-.52-.47-1.1-.69-1.83-.18,.56-.06,1.37,.17,2.01,1.04,1.03-.26,1.81-1.63,.95,.22,.38,.49,.59,.83,.72-.03,.2-.09,.6-.28,.77,.48-.08,.7-.43,.79-.63,.11,.02,.23,.04,.36,.06,.21,.02,.42-.02,.6-.12,.07,.1,.12,.19,.24,.21,.77,.16,1.76-.67,1.79-1.5,1.53-.62,1.26-2.05,.08-2.69Zm-13.14-28.41c.1-2.34,1.97-2.69,3.15-1.94-.68-1.16-2.56-1.47-3.41-1.47-.57,0-1.12,.14-1.61,.42,.45-1.16,2.17-1.68,3.7-.9-.44-.77-1.73-1.72-3.93-1.16,.75-1.27,3.06-.93,3.06-.93-1.47-1.46-4.31-.56-5.22-.19,1.2-1.34,2.67-1.66,4.24-1.21-1.26-1.25-3.7-.9-4.18-.78,1.03-1.6,3.4-.66,3.4-.66-1.42-1.72-4.13-1.1-4.51-1,.57-.96,2.69-1.38,4.37-.49-1.45-1.74-4.56-1.63-5.15-1.34,2.34-2.32,5.92-.9,8.36,2.22,1.84,2.35,3.02,5.91,3.31,10.18-.12-.02-.25-.04-.38-.06,0,0-.74-7.61-4.08-10.59,3.02,3.83,3.49,10.49,3.46,10.49-.03-.11-.06-.22-.12-.33-.62-1.33-3.05-2.48-4.47-.25Z"/><path class="l" d="M5.59,22.75h0c-1.05,5.44,1.03,8.8,2.86,10.61,1.1,1.08,1.79,1.54,1.96,2.51-.17,1.47,.11,2.96,.34,3.86-.49,1.1-.75,1.6-1.15,2.95h0c-.1,.36-.22,.7-.4,1.05,1.49,.5,3.54,2.32,6.83,1.58-3.12-.49-4.81-1.95-6.33-2.59,.25-.4,.49-.76,.7-1.09,1.66,0,4.01,1.87,6.24,.97-2.2,.15-3.42-1.74-5.5-2.04,.3-.41,.5-.67,.57-.75,1.6,.17,3.43-1.3,5.42-.3-2.16-2.15-3.4-.5-5.58-.43-.04-.17-.08-.37-.12-.59,2.09-.95,3-3.51,5.2-4.08-2.4-.23-3.63,1.85-5.33,2.82-.02-.47-.01-.98,.05-1.51,1.81-.75,2.96-3.8,4.48-4.01-1.64-.6-2.81,1.66-4.19,2.66,.24-.77,.63-1.54,1.24-2.23-1.12,.52-1.78,1.37-2.15,2.32-.36-.47-.72-.74-1.41-1.39,.04,.03,.07,.06,.1,.09,3.15-.64,2.63-2.64,5.11-3.39-2.36,0-3.73,1.96-6.32,2.12-.48-.61-.96-1.36-1.36-2.22,1.38-.08,1.87,1.31,4.52,0-2.75,.41-3.04-.94-4.95-1.05-.52-1.55-.76-3.4-.39-5.52,.07,.05,.15,.09,.23,.14,.53,.1,1.26,.15,1.52-.48-2.49-.39-2.94-2.05-2.94-2.05,0,0-.1-.49,1.29-.66-1.28-.18-2.16,.32-2.16,.32,0,0,.31,1.38,1.59,2.41Z"/><path class="l" d="M14.62,23.51s1.58,.83,2.43-.02c-.63,0-.73,.15-2.43,.02Z"/><path class="l" d="M15.3,22.88c.37,.17,1.21,.68,2-.1-.55,.13-2,.1-2,.1Z"/><path class="l" d="M6.92,20.13c.26,.03,.79,.11,1.46,.28-.08-.08-.22-.16-.37-.24,.46-.26,2.43-1.25,5.35-.88-1.86-.76-3.63-.46-4.87-.03-.3-.21-.77-.52-1.42-.88-.19,.19,.03,1.08,.14,1.45-.3,.16-.46,.28-.46,.28h.17Z"/><path class="l" d="M13.45,23.79c.2-.09,.37-.1,.54-.1,0-.74,.49-1.33,1.88-1.43-1.87-.17-2.42,.72-2.42,1.53Z"/><path class="l" d="M24.81,49.22c-.05,.17-.18,.45-.39,.55,.46,.08,.7-.13,.8-.27,.2,.09,.41,.13,.6,.1,1.25-.46,.2-1.45,.59-2.38-.61,.43-.38,1.5-.79,1.68-.43,.2-1.07-.63-.88-1.51-.49,.79-.31,1.44,.07,1.83Z"/><path class="l" d="M8.38,24.82c0-.45,.17-.61,.39-.78,0,1.11,.72,1.7,1.23,2.04,.96-.29,1.73,.23,2.06,1.08,0-1.07-.8-1.67-1.89-1.67-.64-.23-1.16-1.08-1.15-2.26-.15,0-.22,.04-.34,.16-.12-1.02,.63-1.69,.96-2.42-1.2,.89-1.96,2.41-1.27,3.84Z"/><path class="l" d="M7.7,21.54c.8,0,.55-.64,.55-.64,0,0-.67-.35-2.44-.2,.56,.56,1.09,.84,1.89,.84Z"/><path class="l" d="M12.37,69.49c0-.45-.37-.67-.75-.67-.07,0-.29-.1-.57,.05,.33-.03,.53,.04,.6,.07,.29,.13,.41,.3,.41,.45-.12-.05-.32-.16-.72-.05,1.1,.31,.85,1.01,.58,1.05-.14-.14-.59-.62-1.29-.35,.97-.11,1.67,1.7,.41,1.7-.21-.98-.86-1.42-1.54-1.02,.42,0,.89,.07,1.04,1.08,.09,.55-1,.66-1.37,.3-.43-.13-.77-.31-1.35-.42-.58-.1-2.14-.34-2.06-1.16,.02-.29-.02-.69-.06-.98-.02-.17-.07-.42-1.42-.29,.24-.35,.79-.78,1.02-1.01,.23-.23,.03-.55-.15-.55s-.68,0-1.12,.22c.18-.58,.7-.87,.9-.97,.3-.14,.2-.57-.05-.64-.18-.05-.86-.08-1.41,.1,.51-.69,1.41-.53,1.28-1.01-.13-.56-.22-1.02-.22-1.56-.34,.33-.41,.93-.36,1.67-.49,.16-1.12,.56-1.41,1.43,.64-.3,1.26-.2,1.64-.16-.4,.25-1.01,1.16-1.1,1.82,.3-.19,1.02-.43,1.44-.37-.34,.2-1.03,.73-1.42,1.54,.82-.16,1.3-.15,1.65,.02,.07,.43,.11,.96,.11,1.31s1.36,.91,2.62,1.11c.84,.14,1.32,.69,2.18,.69,.1,.1,.15,.64-.04,.82,.48-.37,.57-.76,.67-1,.12,0,.31-.19,.31-.38,.32,.07,.68,.01,.68,.01,0,0,.18,.29,.18,.94,.48-.48,.34-.97,.2-1.19,.45-.45,.22-1.05,.22-1.05,0,0,.45,0,.79,.66,0-.68-.28-1.02-.28-1.02,0,0,.04-.68-.29-1.23Z"/><path class="l" d="M29.67,61.36c.3-.39,.36-.8,.26-1.16h0c-.1-.37-.41-.77-.69-.94,0-1.67-1.92-1.78-2.81-.89-.52,.11-1.59,.11-2.45-.41-.23-.14-.43-.4-.43-.63,0-1.13-.18-4.81-1.06-5.56,.1,.16,.19,.59,.25,.94,.24,1.55,.13,3.85,.12,4.97,0,.38,.24,.73,.67,.83,.75,.19,1.88,.67,3.11,.32,.37-.28,1.31-1.19,2.26,.16-.29-.29-1.44-.47-1.94,.02-.23,.23-1.06,.37-2.06,.37,1.08,.2,1.66,.3,2.21,.03,.49-.69,2.72,0,2.4,1.25-.24-.33-.41-.57-1.13-1.01-.45-.28-1.2-.22-1.39,.28-.02,.05-1.11,.2-1.71,.11,1.23,.4,1.66,.18,1.66,.25,.35-.34,.98-.47,1.68,.03,.18,.18,.85,.67,.26,1.26-.27,.36-.77,.52-1.75,.34-.41-.09-1.26-.12-1.37-.12-.11,.46-.77,1-.77,1,0,0-.57-1.43-.89-1.43s-.62,1.23-1.37,1.55c0-.62-.23-1.43-.5-1.43s-.37,.52-1.14,.99c0-.74-.12-1.16-.24-1.28-.12-.12-1.02-.28-1.09-.35-.38-.38,.88-3.03-.78-4.67-.91-.91-2.85-.75-3.39-.69-.16-.34-.38-.69-.66-1.06,2.27,4.84-7.18,9.77-7.27,11.08,.31-.29,.5-.35,.78-.48,0,.96,.13,2.3,.37,3.8-.27-.39-.56-1.1-.77-1.95-.13,.62-.03,1.64-.03,2.28-.33-.47-.55-1.07-.7-1.99-.25,1.55,.08,2.55,.15,2.76,.21,.6,1.59,.8,1.59,.8,0,0-.92-.65-.58-.99,.5,.49,1.07,.31,1.07,.31,0,0-.4-.07-.53-.51,.6,.36,1.26-.12,1.26-.12,0,0-.87,.05-.87-.38,.39,.38,1.59-.13,1.59-.13,0,0-1.44,.12-1.66-.64-.17-.58-.41-2.8-.17-3.52,.16-.47,4.67-3.14,6.27-6.12,.45-.84,.61-1.62,.41-2.43,.58-.12,1.85-.25,2.8,.69,1.02,1.02-.04,4.34,.46,4.48,.49,.15,1.17,.49,1.17,.49,0,0,.45,.57,.14,1.72,.85-.42,1.66-1.22,1.66-1.22,0,0,.28,.92,.13,1.66,.85-.29,1.93-1.69,1.93-1.69,0,0,.46,.58,.46,1.45,.61-.27,1.29-.82,1.5-1.33,1.09-.08,1.9,.54,2.8,.01,.12-.07,.62,.34,.89,.91,.16-.46,.02-1.24-.32-1.59,.05-.01,.18-.15,.21-.4Z"/><path class="l" d="M5.57,56.47c2.28,2.79,1.11,5.41-.28,6.78,.33-.16,1.28-.71,1.89-1.7,.75-.03,3.31-.29,4.72-2.61-1.76,1.58-3.49,1.49-4.23,1.35,.05-.27,.07-.57,.05-.88,1.15-1.19,5.53-1.88,5.36-4.19-.46,1.64-4.69,1.75-5.64,2.92-.12-.31-.27-.65-.46-1,1.04-1.54,5.03-1.46,6.34-3.62-1.62,1.01-4.97,.25-7.26,2.27-.24-.29-.5-.6-.79-.91-.09,.27-.03,.82-.03,1-.55,.1-1.03,.12-1.46,.09-.21-.47-.52-1.47-.52-2.27-.66,.65-.87,1.48-.94,1.83-.79-.49-1.24-1.36-1.5-2.51-.04-.17-.06-.34-.09-.51,.36-.32,1-.72,1.88-.58,.35,1.19,1.28,2.42,2.55,1.34,2.28,.29,4.3-1.44,7.49-1.44-2.04-.99-5.38,.3-6.9,.06-.04,.04-.07,.08-.11,.11,.14-.5,.35-1.18,.69-2.09,.04,0,.08,.01,.13,.02,1.21,.13,3.46-1.16,5.84,.27-2.04-2.03-4.08-1.59-5.47-1.56,.18-.44,.39-.92,.63-1.44,1.03-.08,4.34-.24,5.82,.85-1.19-1.72-4.64-1.95-5.3-1.98,.29-.61,.62-1.27,.99-1.98-2.56,2.91-3.77,6.72-4.07,7.71-.3,.99-.82,1.11-1.32,.61-.67-.66-1.05-4.38,2.34-11.45-1.16,1.86-2.02,3.77-2.59,5.51-.58-.26-1.06-.21-1.4-.1,.53-1.34,1.15-2.69,1.72-3.99,.33-.27,1.01-.74,1.66-.63-.32-.54-.88-.59-1.14-.58,.35-.84,.66-1.64,.88-2.39v.06s.73-.33,1.44,.12c0-.02,.02-.03,.03-.05-.1,.62-.25,1.18-.4,1.61,1.12-1.75,1.58-4.37,.5-6.33-2.25-4.03-6.03-2.03-5.6-1.17,.52,1.04,2.5-.08,3.44,1.57,1.46,2.57-1.02,6.98-2.79,10.75-1.99,4.25-3.03,12.58,3.89,11.13ZM1.81,32.53c.27-.2,.68-.32,1.14-.33-.22,.22-.28,.71-.3,.95-.21,0-.4,0-.62-.03-.47-.06-.57-.34-.23-.59Zm2,.9c-.06-.03-.12-.05-.18-.08-.05-.26-.07-.7,.26-1.02,.6,.17,1.23,.54,1.78,1.15-.78,.32-.58,.81-.55,1.08,.7-.2,1.2-.02,1.2-.02h0c.35,.84,.44,1.91,.39,2.95-.51-.32-1.04-.17-1.32-.04,.11-.77,.09-1.47-.14-2.06-.1-.26-.45-1.51-1.44-1.96Zm-.88,14.54s0-.03,.01-.04c-.24,.93-.38,1.79-.44,2.53-.91-.19-1.48,.11-1.74,.3,.09-.88,.31-1.8,.61-2.73,.4-.15,1.05-.31,1.56-.06Z"/><path class="l" d="M13.54,20c-2.27-.88-2.86,.3-2.49,1.1-.76,.38-1.75,2.31,1.93,2.13-1.9-.41-2.21-1.3-1.49-1.74,0,0,.02,0,.02,0,1.21,1.12,2.5,.73,3.03-.23,.42-.07,.79-.31,.91-.61,.32,.04,.97,.13,1.9,.3-.4-.4-1.37-.64-1.91-.76-.14-.29-.58-.59-1.46-.77,1.79,.59,.78,1.99,.22,1.44-.79-.78-1.58-.44-2.39,0-.04-.34,.07-1.05,1.73-.86Zm-.27,.89c-.13,.05-.22,.2-.22,.38,0,.22,.14,.4,.32,.4s.32-.18,.32-.4c0-.07-.02-.14-.04-.19,.15,.08,.31,.16,.52,.16-.15,.62-.82,.82-2.14,.14,.61-.55,.96-.59,1.25-.49Z"/><path class="l" d="M17.9,22c-.46,0-.85-.15-1.22-.33,0,.37,.52,.77,.95,.83-.1,2.43-1.87,1.75-3.33,1.47-.6,.1-2.02,.82-1.57,2.22-.47-1-.23-1.9,.38-2.28-1.54,.11-1.43,2.19-.23,3.08,.44,.33,1.27,.07,1.79-.03,.76-.14,1.3,.23,1.74,.08,.4-.13,.75-.55,.75-1.05,.17,.36,.21,.72,.15,.9,.43,.42,.05,1.11-.07,1.24-.74-.74-2.5-.57-3.8,.2-.53,0-.88-.33-1.34-.79,0,.51-.12,.85-.35,1.08-.12-.31-.49-.88-1.04-1.19,0,0-.13,.66-.36,.88-.31-.96-2.27-1.14-2.68-4.24-.44,3.62,2.46,3.54,2.46,5.12,.38-.17,.6-.33,.73-.75,.26,.21,.58,.39,.8,1,.31-.16,.54-.46,.68-.91,.26,.26,.76,.37,1.14,.45,.5-.5,.82-.57,1.38-.57-.11,.25,.07,.56,.14,.63,.85,.84,2.29,.52,3.39,.63-.09,.09-.12,.23-.1,.33,.76,.21,1.87,.64,2.69,1.32-.59-1.06-1.32-1.28-2.06-1.52,0-.16,.16-.28,.28-.4-.93-.2-2.84-.11-3.24-.5-.28-.28-.16-.64,.09-.81,.32-.21,1.1,.08,1.1,.91,.22,0,1.29-1.64,.52-2.15,0-.23-.05-.46-.17-.66,.92-.07,2.18-.65,1.53-2.14-.02-.05-.07-.06-.09,.01-.12,.61-.77,1.32-1.38,1.32,.76,0,.88-.29,1.26-.49-.29,1.26-2.94,.7-3.7,1.04,.24-.44,.81-.54,2.05-.54-2.38-.45-3.4,.7-3.69,1.14,0-.01-.02-.03-.03-.04-.31-.57-.03-1.34,.38-1.75,.83-.43,1.61,.17,2.46,.17,1.23,0,1.7-.46,1.96-2.5,.64-.63,.76-.98-.49-1.24,.47,.29,.69,.5,.13,.86Zm-1.99,4.61c-.2-.12-.38-.2-.56-.25,.38-.13,.92-.12,1.46-.14-.1,.36-.63,.55-.9,.39Z"/></g><path class="l" d="M40.43,19.3c-.31,2.4-1.59,3.03-2.24,4.66-.62,1.56-.42,3.22-2.22,5-1.21,1.2-.92,3.29-1.62,5.26-.62,1.72-3.56,5.49-5.98,3.57-.27,.58,.19,1.17,1.22,1.29,1.31,.12,2.32,.3,3.11,.51-.02,.15-.01,.32,.05,.53-.14,.1-.25,.23-.31,.4-.11,.3-.05,.62,.14,.87-.07,.14-.14,.28-.21,.41-.51,.08-.75,.75-1.31,.86-.92,.18-1.58-.25-1.99-.31-1.11-.24-.38,1.03,.16,1.32-.18,0-.22,.15,0,.33,2.14,1.71,5.05-.26,4.35-1.77,.03-.12,.06-.28,.09-.44,.3-.07,.56-.26,.67-.56,.08-.21,.06-.43-.02-.63h.03c.14-.07,.23-.15,.31-.26,.73,.38,1.11,.68,1.61,.68-1.07-1.62,.38-3.24,.98-5.8,.65-2.76,.5-3.87,1.1-4.78,1.74-2.67,1.5-3.95,1.45-5.14-.1-2.46,1.62-2.99,.62-6Z"/><path class="h" d="M33.22,36.64c.29-.51,1.4-3.03,2.69-5.67,1.09-2.24,1.74-1.9,2.25-4.99,.49-2.91,1.69-3.61,2.15-4.81,0,1.07-1.02,2.35-1.02,4.24,0,1.04-.36,1.38-.48,1.77-.53,1.67-1.36,1.98-1.97,5.2-.87,2.89-1.07,4.91-1.07,4.91,0,0-.55,1.47-.55,2.06-.88-1-3.23-1.04-4.08-1.04,.66-.15,1.64-.91,2.07-1.68Z"/><path class="k" d="M33.49,40.44c-.07,.35-.17,.72,.13,1.14-.32-.06-.51-.55-.51-.79-.28,0-.33,.38-.33,.5-.17-.17-.32-.74,.19-1.02,.09,.09,.28,.15,.52,.17Z"/><path class="k" d="M35.77,40.68c-1.48-2.75-6.28-1.85-7-2.27,.4,.9,4.6,.17,7,2.27Z"/><path class="k" d="M32.76,42.63c.21-.46-.27-.72-.75-.11-1.08,.99-2.2,.29-2.9,.09-.31-.09-.39,.43,.59,1.02-.34,0-.19,.18,.1,.38,.32,.22,1.89,.75,2.86-.35-.42,.2-1.39,.63-2.49,.07,1.58,.07,2.27-.45,2.59-1.12Z"/><path class="l" d="M33.97,36.94s-.45,.79-1.47,1.22c.41-.33,.94-1.18,.94-1.18l.54-.05Z"/><path class="l" d="M46.16,37.79c-2.41,1.92-5.36-1.85-5.98-3.57-.71-1.97-.42-4.06-1.63-5.26-1.8-1.79-1.59-3.44-2.22-5-.65-1.63-1.93-2.26-2.23-4.66-1,3.02,.72,3.54,.62,6-.05,1.18-.3,2.47,1.44,5.14,.6,.91,.45,2.02,1.1,4.78,.6,2.56,2.05,4.18,.98,5.8,.5,0,.88-.31,1.62-.68,.07,.11,.17,.19,.3,.26h.03c-.08,.2-.09,.42-.02,.63,.11,.29,.37,.49,.67,.56,.03,.16,.06,.31,.09,.44-.69,1.5,2.21,3.48,4.36,1.77,.23-.19,.18-.33,0-.33,.54-.29,1.27-1.56,.16-1.32-.41,.06-1.08,.49-1.99,.31-.56-.11-.8-.78-1.31-.86-.06-.13-.13-.26-.21-.41,.19-.25,.26-.57,.15-.87-.06-.17-.17-.3-.32-.4,.06-.21,.07-.38,.05-.53,.79-.21,1.79-.39,3.11-.51,1.04-.12,1.5-.71,1.22-1.29Z"/><path class="h" d="M41.32,36.64c-.28-.51-1.4-3.03-2.69-5.67-1.08-2.24-1.73-1.9-2.25-4.99-.49-2.91-1.69-3.61-2.15-4.81,0,1.07,1.02,2.35,1.02,4.24,0,1.04,.36,1.38,.48,1.77,.53,1.67,1.36,1.98,1.97,5.2,.87,2.89,1.06,4.91,1.06,4.91,0,0,.55,1.47,.55,2.06,.88-1,3.24-1.04,4.08-1.04-.67-.15-1.64-.91-2.08-1.68Z"/><path class="k" d="M41.05,40.44c.07,.35,.17,.72-.13,1.14,.32-.06,.51-.55,.51-.79,.27,0,.32,.38,.32,.5,.18-.17,.33-.74-.19-1.02-.09,.09-.28,.15-.52,.17Z"/><path class="k" d="M38.76,40.68c1.49-2.75,6.28-1.85,7-2.27-.4,.9-4.59,.17-7,2.27Z"/><path class="k" d="M41.78,42.63c-.22-.46,.26-.72,.75-.11,1.09,.99,2.2,.29,2.9,.09,.31-.09,.39,.43-.58,1.02,.34,0,.18,.18-.11,.38-.32,.22-1.89,.75-2.85-.35,.41,.2,1.39,.63,2.49,.07-1.58,.07-2.28-.45-2.59-1.12Z"/><path class="l" d="M40.57,36.94s.45,.79,1.47,1.22c-.41-.33-.93-1.18-.93-1.18l-.54-.05Z"/><path class="d" d="M45.59,36.93l.04-9.73-.02-.68s-.32-.02-1.15-.13c-.14-.01-.25-.07-.37-.1-.17-.04-.23-.22-.28-.4-.58,.33-1.72,.06-2.99-.48-1.33-.56-3.55,1.12-3.55,1.12h0s-1.77-1.51-3.17-1.17c-1.48,.36-2.67,.84-3.41,.53-.51,.91-1.67,1.43-1.67,1.43l-.06,9.61,6.39,.08,1.93,.88h0l2.01-.9,6.31-.06Z"/><path class="k" d="M39.28,36.99c-.72,.71-1.35,.95-2.01,.89-.5-.49-.55-1.39,.09-2.03,.91-.05,.69,.31,1.47,.3,2.78-.05,6.11-.05,6.11-.14,.01-1.56,.02-7.39,0-8.88,0-.21-.34-.58-.34-.58l1.01-.03-.02,10.25s-3.69-.08-6.31,.22Z"/><path class="h" d="M37.27,26.53v9.43s-2.58,.3-5.99,.01c1.79-.36,2.7-1.14,3.72-1.09-.63-4.06,1.49-6.22,.53-9.32,.95,.18,1.74,.97,1.74,.97Z"/><path class="h" d="M40.93,25.54c1.37,2.37-1.02,5.96,0,9.66,.08,.08,1.77,.31,1.99-.63-1.04-2.59,.96-5.85,.1-8.55-.97-.32-1.22-.48-2.09-.48Z"/><path class="h" d="M32.29,25.88c.38,3.71-1.52,7.27-.45,9.98-.39,.13-1.58-.02-1.58-.02l.43-9.94s.6,.44,1.6-.01Z"/><path class="h" d="M38.67,36.06c-.6-.04-1.38-.21-1.38-.21,0,0,1.08-1.07,1.98-1.01,1.66,.11,2.34,.87,3.83,1.06-.56,.11-1.51,.12-2.43,.12-.52,0-1.21,.08-1.99,.03Z"/><path class="k" d="M40.93,35.2s1.01,.01,1.6-.21c1.12-.42,1.52-1.46,1.72-1.95-.15,1.03-.25,1.82-.15,2.33-.39,.43-1.23,.37-1.47,.34-1.24-.15-1.7-.51-1.7-.51Z"/><polygon class="h" points="44.22 32.1 44.17 26.31 44.85 27.04 44.94 36.01 44.16 35.72 44.22 32.1"/><path class="k" d="M35.25,36.99c.71,.71,1.35,.95,2,.89-.26-.24-.21-.77-.27-1.2-.04-.31,.33-.51,.18-.83-.91-.05-.69,.31-1.47,.3-2.77-.05-6.11-.05-6.11-.14,0-1.56-.02-7.39,0-8.88,0-.21,.34-.58,.34-.58l-1.01-.03,.03,10.25s3.69-.08,6.32,.22Z"/><path class="k" d="M33.6,35.2s-1,.01-1.59-.21c-1.12-.42-1.38-1.39-1.56-1.57-.11,1.09-.1,1.52,.12,2.12,.21,.56,1.09,.2,1.34,.17,1.25-.15,1.69-.51,1.69-.51Z"/><path class="l" d="M45.91,26.29h-1.44c-.11-.15-.18-.31-.2-.42-.14,.03-.17,.03-.21,.03,0-.12,.01-.29,.01-.29-2.26,1.09-3.27-2.02-6.24,.52,3.06-1.85,4.39,.59,5.97-.09-.15,.97,.17,4.17,.22,5.82,.07,1.95-.35,2.08-1.13,2.08,0,1.02-.52,1.12-1.16,1.17-.71,.05-1.29-.61-2.68-.37h0s-.03,0-.04,0h-.01c-.86,.12-1.39,.54-1.74,.94h0c-.35-.4-.88-.82-1.74-.94h-.01s-.02,0-.03,0h0c-1.38-.24-1.97,.42-2.68,.37-.64-.04-1.17-.15-1.17-1.17-.78,0-1.2-.12-1.13-2.08,.05-1.66,.38-4.85,.23-5.82,1.58,.68,3.12-1.65,5.97,.01-3.25-2.51-3.98,.64-6.24-.44,0,0,.02,.16,.02,.29-.05,0-.07,0-.21-.03-.02,.11-.09,.26-.2,.42h-1.61l.03,10.86h6.77s.84,1.04,2,1.04h0s0,0,0,0c1.16,0,2.01-1.04,2.01-1.04h6.76l.04-10.86h-.16Zm-1.64,.2c.1,.31,.39,.49,.39,.49v8.86s-.28,.03-.39-.54c-.07-.33,.02-8.46,0-8.81Zm-.24,7.13l-.05,1.71c-.6,.27-1.53,.19-2.26,.03,.79,0,1.66-.1,2.3-1.74Zm-1.69,2.22c-1.43,.04-2.76,.05-3.66,.05-.18-.06,.29-.51,.89-.51-.86-.24-1.71,.32-1.92,.32,2.06-1.63,2.94,.02,4.69,.15Zm-5.46-.15c-.21,0-1.06-.56-1.92-.32,.61,0,1.08,.45,.89,.51-.9,0-2.23,0-3.66-.05,1.75-.13,2.63-1.77,4.69-.15Zm-4.08-.34c-.73,.16-1.65,.24-2.26-.03l-.04-1.71c.64,1.64,1.51,1.74,2.3,1.74Zm-2.54-.06c-.12,.56-.4,.54-.4,.54v-8.86s.3-.18,.4-.49c-.02,.35,.07,8.47,0,8.81Zm15.29,1.41l-6.55-.03s-.71,1.02-1.74,.96c-1.02,.06-1.74-.96-1.74-.96l-6.55,.03v-10.03h.78c-.08,.09-.17,.17-.25,.24-.04,2.86,0,9.32,0,9.32,0,0,6.34,0,6.67,0,.27-.13,.89-.2,1.08-.2h0s0,0,0,0c.19,0,.81,.06,1.08,.2,.33,0,6.67,0,6.67,0,0,0,.05-6.46,0-9.32-.09-.07-.18-.16-.25-.24h.79v10.03Z"/><path class="j" d="M37.26,36.42c-.09,0-.61-.01-.88,.25,.21,.51,.61,.55,.86,.55,0,0,.01-.01,.01-.02,0,0,0,.01,.01,.02,.25,0,.65-.04,.87-.55-.26-.26-.78-.25-.88-.25Z"/><path class="l" d="M44.06,52.49c.33-1.11-.53-2.67-2.4-2.32,.71-1.87-1.35-2.69-2.24-2.18-.42-.86-1.48-1.08-2.15-1.08-.38-.04-1.73,.2-2.15,1.08-.89-.51-2.95,.32-2.24,2.18-1.87-.35-2.73,1.21-2.4,2.32-1.03,.6-.85,1.87-.27,2.45-.43,.88-.17,2.23,1.26,2.59-.46,.7-.83,1.98,.86,2.49-.12,1.19,.95,2.13,2.37,1.76,.09,.18,1.52,1.26,2.56-.12,1.05,1.38,2.48,.31,2.57,.12,1.42,.37,2.49-.57,2.38-1.76,1.69-.52,1.31-1.8,.86-2.49,1.43-.36,1.69-1.71,1.26-2.59,.58-.58,.76-1.85-.27-2.45Z"/><path class="j" d="M43.23,52.36c.4-1.75-1.13-1.81-1.73-1.55-2.06,.92-3.29,3.04-3.77,3.69,.68-1.91,1.81-3.19,3.21-4.05,.46-1.22-.53-2.31-1.8-1.91-.56-.89-1.36-.97-1.88-1-.51,.03-1.31,.11-1.88,1-1.26-.4-2.26,.69-1.79,1.91,1.39,.86,2.52,2.14,3.21,4.05-.47-.65-1.71-2.77-3.77-3.69-.6-.26-2.12-.2-1.72,1.55-1.43,.86-.83,2.27-.4,2.44-.96,1.58,.81,2.26,.81,2.26,0,0,1.45-1.97,4.94-1.72-2.54,.27-3.74,1.2-4.49,1.94-.75,.75-.81,2.18,.66,2.28-.17,1.84,1.11,1.76,1.92,1.45,.42,.81,1.72,.8,2.05,.39,.35-1.24,.46-4.53,.46-4.53,0,0,.15,3.4,.47,4.53,.33,.41,1.63,.43,2.05-.39,.81,.31,2.09,.39,1.92-1.45,1.47-.09,1.41-1.53,.67-2.28-.75-.74-1.95-1.67-4.49-1.94,3.49-.25,4.94,1.72,4.94,1.72,0,0,1.78-.67,.81-2.26,.43-.17,1.03-1.58-.4-2.44Z"/><path class="k" d="M43.18,53.39c-.09-.33-.31-.86-1.02-1.23,0-.68-.52-.73-.79-.61-.91,.42-1.31,.95-1.61,1.29,.43-.15,1.15-.4,2-.25-.31,.19-.95,.44-1.45,.95,.75-.16,1.45-.18,2.04,.08-.65,.15-1.44,.45-1.98,.68,.58,.05,1.27,.11,2,.47-1.28,0-1.99,.23-1.99,.23,0,0,1.37,.18,2.43,1.23,.29-.5,.25-.89,.08-1.26,.45-.66,.38-1.24,.3-1.57Z"/><path class="k" d="M42.01,57.8c-.55-.79-1.48-1.09-1.48-1.09,0,0,.56,1.03,.56,1.67-.54-.53-1.28-1.08-1.28-1.08,0,0,.52,.79,.52,1.64-.34-.53-1.23-1.2-1.23-1.2,0,0,.47,1.01,.3,1.58-.17-.25-.78-1.07-.99-1.25,.2,.67,.28,1.11,.12,1.61-.38-1.04-.87-1.36-.87-1.36,0,0,.28,1.26,.35,2.16,.05,.21,1.17,.26,1.5-.38,1.49,.35,1.68-.51,1.8-1.3,.96,0,.87-.74,.69-1Z"/><path class="k" d="M38.72,49.11c-.53-.59-1.1-.67-1.45-.67h-.01c-.35,0-.92,.09-1.44,.67-1.38-.23-1.51,.73-1.51,1.04,1,.51,1.79,1.78,1.79,1.78,0,0-.23-1.11-.47-1.63,.6,.2,1.05,1.45,1.05,1.45,0,0-.12-1.12-.12-1.75,.33,.33,.7,1.81,.7,1.81,0,0,.38-1.48,.71-1.81,0,.63-.12,1.75-.12,1.75,0,0,.46-1.25,1.05-1.45-.23,.53-.46,1.63-.46,1.63,0,0,.79-1.27,1.79-1.78,0-.31-.13-1.27-1.51-1.04Z"/><path class="k" d="M31.36,53.39c.09-.33,.3-.86,1.02-1.23,0-.68,.52-.73,.79-.61,.9,.42,1.31,.95,1.61,1.29-.43-.15-1.15-.4-2-.25,.31,.19,.95,.44,1.45,.95-.76-.16-1.45-.18-2.04,.08,.65,.15,1.44,.45,1.98,.68-.58,.05-1.27,.11-1.99,.47,1.27,0,1.98,.23,1.98,.23,0,0-1.38,.18-2.43,1.23-.3-.5-.25-.89-.09-1.26-.45-.66-.38-1.24-.29-1.57Z"/><path class="k" d="M32.53,57.8c.56-.79,1.48-1.09,1.48-1.09,0,0-.57,1.03-.57,1.67,.54-.53,1.28-1.08,1.28-1.08,0,0-.52,.79-.52,1.64,.34-.53,1.23-1.2,1.23-1.2,0,0-.47,1.01-.3,1.58,.17-.25,.77-1.07,.99-1.25-.2,.67-.27,1.11-.12,1.61,.37-1.04,.87-1.36,.87-1.36,0,0-.28,1.26-.35,2.16-.04,.21-1.17,.26-1.49-.38-1.5,.35-1.68-.51-1.81-1.3-.96,0-.86-.74-.69-1Z"/><path class="l" d="M37.56,54.59c-.52-.65-2.47-1.85-4.78-2.29,.09-.11,.15-.24,.15-.38,0-.34-.3-.62-.67-.62-.22,0-.41,.1-.53,.24-.12-.19-.33-.32-.58-.32-.27,0-.5,.14-.61,.35-.12-.18-.33-.3-.58-.3-.31,0-.57,.19-.65,.46-.11-.19-.33-.32-.59-.32-.37,0-.67,.28-.67,.62,0,.24,.15,.44,.36,.54-.04,.03-.07,.06-.11,.1h0c-.09,.11-.15,.24-.15,.39,0,.34,.3,.62,.67,.62,.24,0,.45-.11,.57-.29,.12,.12,.29,.19,.48,.19,.23,0,.42-.1,.55-.25,.12,.19,.33,.31,.58,.31,.21,0,.39-.09,.51-.22,.09,.25,.34,.42,.63,.42,.36,0,.65-.26,.67-.58,2.59,.87,3.65,2.38,3.91,2.57,.19,.12,.59,.25,.91,.01,.33-.24,.45-.58-.09-1.24Zm-8.26-2.25s.05-.1,.07-.16c.02,.04,.05,.08,.09,.12-.05,.01-.11,.02-.16,.04Z"/><path class="h" d="M37.27,54.76c-.44-.44-3.64-3.31-8.48-2.22,5.7-.25,7.79,2.87,8.18,3.01,.66,.35,.65-.44,.3-.78Z"/><path class="h" d="M29.07,52.02c0,.18-.16,.32-.35,.32s-.35-.14-.35-.32,.15-.32,.35-.32,.35,.14,.35,.32Z"/><path class="h" d="M30.31,51.88c0,.17-.16,.32-.35,.32s-.34-.14-.34-.32,.15-.32,.34-.32,.35,.14,.35,.32Z"/><path class="h" d="M30.23,52.95c0,.17-.16,.32-.35,.32s-.35-.14-.35-.32,.15-.32,.35-.32,.35,.14,.35,.32Z"/><path class="h" d="M29.22,53.05c0,.18-.16,.32-.35,.32s-.35-.14-.35-.32,.16-.32,.35-.32,.35,.14,.35,.32Z"/><path class="h" d="M31.51,51.83c0,.18-.16,.32-.35,.32s-.35-.14-.35-.32,.16-.32,.35-.32,.35,.14,.35,.32Z"/><path class="h" d="M31.39,53.01c0,.18-.16,.32-.35,.32s-.35-.14-.35-.32,.16-.32,.35-.32,.35,.14,.35,.32Z"/><path class="h" d="M32.6,51.89c0,.17-.15,.32-.35,.32s-.35-.14-.35-.32,.16-.32,.35-.32,.35,.14,.35,.32Z"/><path class="h" d="M32.49,53.22c0,.18-.15,.32-.35,.32s-.34-.14-.34-.32,.15-.32,.34-.32,.35,.14,.35,.32Z"/><g><path class="l" d="M42.91,16.44c-.23-.45-1.39-.81-2.43-.7,2.84-1.23,4.83-4.03,4.83-7.29,0-.98-.35-2.32-.54-2.87-.47,4.65-3.66,7.5-7.49,7.5h-.01c-3.82,0-7.02-2.85-7.49-7.5-.19,.55-.54,1.88-.54,2.87,0,3.26,1.99,6.07,4.84,7.29-1.05-.12-2.23,.25-2.47,.7-1.46-.49-2.78,.74-2.28,1.92,.33,.78,1.79,.8,2.24,.2,.82,.36,2.26,.14,2.81-.42,1.1,.63,2.87-.16,2.87-.16,0,0,1.78,.79,2.88,.16,.55,.56,2,.77,2.81,.42,.46,.6,1.92,.58,2.25-.2,.5-1.18-.81-2.41-2.27-1.92Zm-11.6,1.7c-.11,.15-.31,.24-.52,.29-.11,.02-.25-.13-.25-.41-.21,.21-.04,.48-.36,.41-.12-.03-.22-.08-.27-.15-.24-.32-.07-1.02,.23-1.23,.36-.26,.93-.36,1.27-.18-.14,.21-.3,.71-.1,1.27Zm-1.48-9.69c0-.26,.01-.53,.04-.79,.68,3.42,3.74,6.01,7.39,6.01h0s.01,0,.01,0c3.65,0,6.71-2.59,7.39-6.01,.03,.26,.04,.53,.04,.79,0,3.48-2.46,6.4-5.75,7.16-.69-.16-1.37,.02-1.63,.19-.02,0-.04,0-.06,0-.03,0-.06,0-.09,0-.26-.17-.93-.35-1.62-.2-3.28-.77-5.73-3.68-5.73-7.16Zm4.25,9.32c-.11,.11-.53,.26-.89,.32-.28,.05-.43-.38-.44-.52-.19,.2-.17,.5-.12,.64-.29,.05-.67,0-.94-.17-.13-.13-.16-.71,.06-1.22,.11-.49,1.95-.82,2.73-.45-.2,.2-.5,.71-.4,1.4Zm2.92-.33c0,.17-.37,.3-.97,.42-.16,0-.31-.27-.36-.53-.1,.1-.25,.31-.25,.58-.18,.08-.62,.02-.81-.17-.37-.36,.03-1.26,.41-1.38,1.02-.4,2.03-.08,2.03-.08,0,0-.04,.99-.04,1.16Zm2.92,.29c-.19,.19-.63,.25-.81,.17,0-.26-.15-.47-.25-.58-.05,.26-.2,.53-.36,.53-.61-.12-.96-.24-.97-.42,0-.18-.05-1.16-.05-1.16,0,0,1.01-.32,2.03,.08,.37,.12,.78,1.02,.41,1.38Zm2.91,.3c-.27,.18-.64,.22-.94,.17,.05-.14,.07-.45-.12-.64,0,.15-.16,.57-.44,.52-.36-.06-.78-.21-.89-.32,.1-.69-.2-1.2-.4-1.4,.77-.38,2.62-.04,2.73,.45,.22,.51,.19,1.09,.06,1.22Zm1.78,.23c-.05,.07-.15,.12-.27,.15-.32,.07-.15-.2-.36-.41,0,.28-.15,.43-.25,.41-.22-.04-.41-.14-.53-.29,.2-.56,.04-1.06-.1-1.27,.35-.17,.91-.08,1.28,.18,.3,.21,.47,.9,.23,1.23Z"/><path class="l" d="M33.24,6.2h0l-2.13,1.33,2.49,.37-1.27,2.17,2.39-.75-.16,2.46,1.81-1.67,.9,2.28,.91-2.28,1.81,1.67-.16-2.46,2.38,.75-1.27-2.17,2.49-.37-2.13-1.33h0l2.13-1.33-2.49-.37,1.27-2.17-2.38,.74,.16-2.46-1.81,1.67-.91-2.27-.9,2.27-1.81-1.67,.16,2.46-2.39-.74,1.27,2.17-2.49,.37,2.13,1.33Zm.17-3.02l1.86,.58-.12-1.95,1.42,1.32,.71-1.81,.71,1.81,1.43-1.32-.13,1.95,1.85-.58-.99,1.7,1.89,.28-1.67,1.04,1.67,1.04-1.89,.28,.99,1.69-1.85-.58,.13,1.94-1.43-1.32-.71,1.81-.71-1.81-1.42,1.32,.12-1.94-1.86,.58,.99-1.69-1.89-.28,1.67-1.04h0l-1.67-1.04,1.89-.28-.99-1.7Z"/></g></g></g></g></g></g></svg>